<svg id="Layer_1" data-name="Layer 1" xmlns="http://www.w3.org/2000/svg" viewBox="0 0 2000 2985.55"><defs><style>.cls-1{fill:#02283c;}.cls-2{fill:#a63c29;}.cls-3{fill:#c04730;}.cls-4{fill:#bf472f;}.cls-5{fill:#356285;}.cls-6{fill:#255374;}.cls-7{fill:#c0492e;}.cls-8{fill:#a33c28;}.cls-9{fill:#a53b28;}.cls-10{fill:#a53c28;}.cls-11{fill:#88332a;}.cls-12{fill:#a33b28;}.cls-13{fill:#9c3928;}.cls-14{fill:#a23b27;}.cls-15{fill:#8e3429;}.cls-16{fill:#bc4530;}.cls-17{fill:#b7442c;}.cls-18{fill:#8a3327;}.cls-19{fill:#01273b;}.cls-20{fill:#01273c;}.cls-21{fill:#00293d;}.cls-22{fill:#002a3f;}.cls-23{fill:#8a342b;}.cls-24{fill:#01263a;}.cls-25{fill:#02283e;}.cls-26{fill:#02263a;}.cls-27{fill:#9a3928;}.cls-28{fill:#95362a;}.cls-29{fill:#02263b;}.cls-30{fill:#012639;}.cls-31{fill:#164a6b;}.cls-32{fill:#184b6c;}.cls-33{fill:#154a6b;}.cls-34{fill:#184b6d;}.cls-35{fill:#a13a27;}.cls-36{fill:#1a4c6b;}.cls-37{fill:#1a4c6d;}.cls-38{fill:#1a4d6e;}.cls-39{fill:#194c6d;}.cls-40{fill:#1c4c6c;}.cls-41{fill:#194b6d;}.cls-42{fill:#a23a28;}.cls-43{fill:#194b6b;}.cls-44{fill:#1a4d6f;}.cls-45{fill:#a43a27;}.cls-46{fill:#1c4c6b;}.cls-47{fill:#1b4d6d;}.cls-48{fill:#1c4e6f;}.cls-49{fill:#1a4d6d;}.cls-50{fill:#1b4d6f;}.cls-51{fill:#a33a28;}.cls-52{fill:#1a4c6c;}.cls-53{fill:#2e5b7d;}.cls-54{fill:#2f5c7e;}.cls-55{fill:#be432d;}.cls-56{fill:#2e5b7c;}.cls-57{fill:#2f5d7f;}.cls-58{fill:#2e5c7d;}.cls-59{fill:#285778;}.cls-60{fill:#265775;}.cls-61{fill:#e4ab51;}.cls-62{fill:#be452e;}.cls-63{fill:#e7ab50;}.cls-64{fill:#e3ab51;}.cls-65{fill:#e4aa50;}.cls-66{fill:#e4ab52;}.cls-67{fill:#2a5879;}.cls-68{fill:#235675;}.cls-69{fill:#315e7f;}.cls-70{fill:#315d7f;}.cls-71{fill:#be452f;}.cls-72{fill:#325e80;}.cls-73{fill:#305d7f;}.cls-74{fill:#315e80;}.cls-75{fill:#2b5978;}.cls-76{fill:#2a5976;}.cls-77{fill:#bd452e;}.cls-78{fill:#2f5d7e;}.cls-79{fill:#2b5979;}.cls-80{fill:#295a77;}.cls-81{fill:#356183;}.cls-82{fill:#366283;}.cls-83{fill:#376283;}.cls-84{fill:#2a5779;}.cls-85{fill:#2a5777;}.cls-86{fill:#356184;}.cls-87{fill:#346082;}.cls-88{fill:#346182;}.cls-89{fill:#2b5878;}.cls-90{fill:#336081;}.cls-91{fill:#346083;}.cls-92{fill:#356182;}.cls-93{fill:#325f80;}.cls-94{fill:#2d5979;}.cls-95{fill:#bd442f;}.cls-96{fill:#336082;}.cls-97{fill:#2b5879;}.cls-98{fill:#2d5978;}</style></defs><path class="cls-1" d="M999.59,2231.32q-433.74,0-867.49-.05c-3.21,0-6.71,1.16-9.55-1.77-3.7-3.8-7-7.94-4.75-13.4s6.06-9,12.62-9c25.31.14,50.61-.07,75.91.24,5.84.08,7.61-1.37,7.61-7.49q-.24-504.87-.14-1009.73c0-7.34,0-7.48-7.33-5.87-9.61,2.14-19.15,4.63-28.76,6.77s-17.7,0-23.76-8.06a16.13,16.13,0,0,1-3.31-10c0-18.79-.34-37.59-.39-56.38,0-14,3.32-18.23,16.84-21.77q105.63-27.58,211.26-55.16Q494.77,1009.27,611.19,979q117.07-30.51,234.14-61.09l224.36-58.48c7.25-1.88,10.14-7.42,7.87-14.65-.52-1.63-1.33-1.71-2.58-1.41-1.41.32-2.78.87-4.2,1-8.6,1.08-13.48-3.2-13.48-11.77,0-13.5.2-27-.09-40.48-.12-5.81,2.38-9,7.63-10.63q43.32-13.39,86.64-26.86a14.68,14.68,0,0,1,8.46.06q62.37,16.2,124.79,32.28c8.64,2.24,10.92,5.36,10.94,14.32q0,18.42,0,36.86c0,9.68-2.54,13-12.2,12.66-6.35-.21-6.91,2.29-6.7,7.33a193.65,193.65,0,0,1-.07,23.11c-.44,5.67,2,7.87,6.82,9.77q70.07,27.39,140,55.16,119.55,47.29,239.09,94.66,85.79,33.95,171.55,67.91c5,2,12.29,1.87,14.58,6.55,2.2,4.49.69,10.84.69,16.37q0,32.16,0,64.33a18.4,18.4,0,0,1-22.53,17.71c-7.23-1.72-14.37-3.88-21.5-6-3.45-1-4.88-.18-4.63,3.62.26,4.08.06,8.19.06,12.29V2198c0,7.74,0,7.78,7.79,7.78q29.64,0,59.28,0c8.87,0,14.94,4.81,15,11.89.1,7.57-6.63,13.69-15.13,13.69Z"/><path class="cls-2" d="M1431.52,2144.61c-32.73-.57-65.4-2.49-98.08-4.07-12.5-.61-25-.82-37.51-1.43-32.45-1.59-65-2-97.41-3.72-13-.7-26-.2-38.9-1.94-5-.67-5.68-2.87-5.66-7.07q.22-41.55.09-83.1c0-4.72,1.43-6.57,6.26-6,10.5,1.17,21,2.27,31.56,3,8.69.59,12.75-3.79,12.68-12.54,0-4.8-2.11-7.76-6.78-8.82-9.19-2.09-18.57-2.51-27.93-3-15.82-.77-15.84-.67-15.83-16.48q0-82.74.11-165.49c0-8.18.46-8.51,8.76-7,8,1.42,16.06,3.17,24.17,4,8.57.87,12.9-2.31,14-8.93.91-5.5-3.81-11.07-11.42-12.54a275.52,275.52,0,0,0-27.77-4.27c-6.21-.54-7.95-2.83-7.91-9,.27-50.59.22-101.18.25-151.76,0-8.14.47-8.48,8.82-6.56,8.67,2,17.34,4,26.07,5.76,4,.78,8.26,1.69,11.86-.94,3.21-2.35,5.62-5.6,4.76-9.88-1-4.84-4.15-8.06-8.8-9.69-8.67-3-17.79-4.12-26.71-6-17.8-3.85-15.85-.12-15.94-19.36,0-5.3.17-10.61-.07-15.89-.2-4.66,1-6.46,6.17-5.39,14.83,3,29.76,5.59,44.65,8.32,8.72,1.61,17.43,3.33,26.2,4.73,4.7.76,8.66-.23,9.62-6,1.26-7.56-.3-11.71-6.36-13.23-10.48-2.64-21.09-4.77-31.68-6.92-14.13-2.87-28.26-5.79-42.47-8.2-5-.85-6.2-3.1-6.17-7.71.18-36.86.13-73.71.3-110.57,0-5,.45-10,0-15.09-.54-6.64.28-7.29,6.61-6,8,1.61,15.91,3.63,23.89,5.34,5.38,1.16,10.49,1.27,14.34-3.84,4.81-6.37,3.13-14.15-4.27-17.08-10.31-4.07-21.2-6.24-31.92-8.91-8.85-2.2-8.88-2.15-8.87-11.42,0-35.89,0-71.78.13-107.68.06-17,1.26-34.07,0-51.11-.41-5.6,2.84-4.91,6.51-4,10,2.52,19.92,5.49,30.19,6.84,7,.91,10.54-.81,12.06-6,1.72-5.82-1.27-12.81-6.73-15.15-6.22-2.67-12.91-3.72-19.48-5.18-7.24-1.61-16.37-1-21-6.06s-1.66-13.85-1.44-21c.83-25.75-.66-51.49-.11-77.24q.42-19.84.87-39.7a107.68,107.68,0,0,0-.84-15.84c-.52-4,0-6.22,5.47-4.54,17,5.25,34,10.33,51.36,14.4,9.31,2.19,13.43,1.36,15.48-4.12,2.29-6.14-.92-12.2-8.9-15.73-17.22-7.59-35.52-11.86-53.6-16.77-9.91-2.69-9.94-2.56-9.94-12.94,0-10.12.18-20.24-.09-30.35-.13-5.08,1-6.39,6.15-4.39,21.94,8.56,44,16.81,66,25.14,30.8,11.66,61.64,23.19,92.41,35,38.84,14.84,77.62,29.87,116.43,44.8,37.47,14.41,75,28.58,112.42,43.24,49.48,19.41,99.29,38,148.92,57,27.17,10.4,54.28,21,81.41,31.47,1.33.51,2.84.71,3.64,2.13,1.34,2.5.67,5.2.67,7.8q.06,447.06,0,894.12c0,11.35-1.2,12.22-12.91,12.81-13.94.7-27.82-2.81-41.81-.13-7.3,1.4-9.58,3.25-9.59,9.95,0,7.23,3.63,11.76,10.5,12.13,12.52.66,25,.15,37.58.26h2.17c14.82.06,15.45.81,13.48,15.78.31,4.74-3.15,4.15-5.9,3.87-13.2-1.34-26.5-.39-39.65-1.57-14.88-1.33-29.79-1.07-44.67-2-28.56-1.81-57.19-2.4-85.8-3.38-17.59-.6-17.56-.49-17.55-18.16,0-42.13-.51-84.26.17-126.38.66-40.43,1.09-80.87.44-121.29-.91-56.08-.26-112.16-.53-168.23a17.72,17.72,0,0,0-4.14-11.79c-16.52-20.66-38-32.66-64.08-34.78-22.27-1.81-42,6.16-58.83,21-1.62,1.43-3.19,2.91-4.79,4.37-2.5,2.46-2.34,5.6-2.33,8.76,0,15.9,0,31.8,0,47.7,0,11.23,0,11.15-10.82,9.27-8.8-1.52-17.64-2.56-26.53-.41-8.34,2-10,4.06-9.86,12.37s2.55,11,10.77,12.5c9.28,1.69,18.75,1,28.06,2.49,6.07,1,8.49,3.66,8.49,10q-.23,170.19-.12,340.39c0,1.66.32,3.39-.62,4.94l-.08.12A81.23,81.23,0,0,1,1431.52,2144.61Z"/><path class="cls-3" d="M232.92,1687.65c18.23-3.22,36.67-4.86,55-7.16,33.86-4.24,67.69-8.8,101.61-12.57,28.91-3.23,57.78-6.8,86.63-10.5,25.5-3.28,51-6.72,76.5-9.87,33.4-4.11,66.84-7.92,100.24-12,22.91-2.81,45.79-5.9,68.68-8.88,28.39-3.69,56.78-7.32,85.16-11.1,32.89-4.37,65.88-7.89,98.73-12.61,28.31-4.06,56.77-7.15,85.15-10.75q54-6.86,108-13.84c9.78-1.25,19.58-2.36,29.35-3.65,4.35-.57,6.07.93,6,5.47-.22,9.15-.13,18.31.1,27.46.1,3.68-1.34,4.81-4.87,5.46-10.63,1.94-21.35,3.63-31.66,7-6.57,2.15-9.53,6.31-9.68,12.75-.16,6.8,1.54,8.83,8.3,8.84,9,0,17.6-2.4,26.27-4.4,11.56-2.66,11.52-2.69,11.53,9q.1,74.07.25,148.14c0,8.25,0,8.25-8.31,9.52-4.76.73-9.54,1.32-14.25,2.26-3.06.61-6.07,1.66-8.3,4.09-3.23,3.53-5.78,7.56-3.8,12.38s6.76,5.11,11.12,4.85c5-.29,10-1.19,15-1.94,7.84-1.17,8.41-.75,8.41,6.86q0,71.55,0,143.09c0,10.84-.08,21.68.22,32.51.11,4.28-1.1,6.11-5.62,6.14a124.29,124.29,0,0,0-14.36,1.36,32.69,32.69,0,0,0-6.31,1.48c-5.81,2-10.57,7.36-9.56,11.23,1.49,5.71,6,7.41,11.43,8.26,6.09.94,12,0,18-.5,4.86-.38,6.22,1.38,6.2,6.08q-.19,42.27.12,84.55c0,5-1.45,6.52-6.51,6.73-34.43,1.41-68.88.68-103.32,1.41-67.18,1.42-134.37,2.28-201.56,3.11-27.69.34-55.4.33-83.08,1.25-56.81,1.89-113.65,2.16-170.48,3q-77.29,1.17-154.58,2.83c-36.61.84-73.23.3-109.81,1.51-22.4.74-44.78.92-67.17,1.35-6,.12-8-1.69-7.81-7.72.41-17.33.26-34.68.32-52,1.21-2.53.6-5.21.6-7.82q.08-45.85,0-91.72c0-9.11,1.5-10.69,10.84-11.15,4.81-.23,9.62-.18,14.36-1.26a20,20,0,0,0,9.52-4.87c3.94-3.68,6.24-8.13,4.81-13.57-1.48-5.61-5.55-8.79-11.14-10.15-6.23-1.51-12.47.12-18.71-.11-9.18-.35-9.68-.75-9.68-9.94,0-40.92.15-81.85-.17-122.78-.05-6.7,2.3-9.84,8.56-10.78a21.22,21.22,0,0,0,12.63-6.4c3.5-3.68,5.49-7.37,1.76-12s-11.17-6.47-15.35-3.61c-1.9,1.3-3.45,4.15-6.1,2.66s-1.28-4.38-1.29-6.64q-.1-41.52,0-83.05C230.88,1692.3,230.06,1689.42,232.92,1687.65Z"/><path class="cls-4" d="M1051.45,1034.18c-.92,12.06,1.6,14.64,13.48,12.11,20.69-4.39,41.25-9.35,61.89-14,7.11-1.59,7.19-1.43,7.2,5.89.06,48.19,0,96.38.27,144.56,0,5.68-1.56,7.84-7.29,7.46-7.86-.52-15.21,2-22.44,4.76a15,15,0,0,0-9.21,10.46c-2.32,8.13,2.46,12.84,10.86,11.63,6.73-1,12.89-4,19.57-4.87,7.72-1,8.29-.32,8.3,7.28,0,21.92,0,43.85.1,65.78.18,31.55.33,63.1.87,94.65.1,6-1.66,8.61-7.59,9.75-9,1.73-17.77,4.31-26.61,6.64-4.63,1.21-8.64,3.52-10,8.45-2.37,8.68,3,15,12.11,13.63,7.35-1.08,14.58-3.05,21.84-4.73,8.66-2,9.21-1.66,9.22,6.86q.07,62.16.12,124.33c0,8.61,0,8.63-8.26,9.82-43.8,6.37-87.69,12.08-131.61,17.61-27,3.39-53.83,7.53-80.78,11-47,6.09-94,11.83-141,17.91-37.45,4.85-74.84,10.14-112.29,15-37,4.76-74,9.12-111,13.78-27.21,3.43-54.38,7.21-81.59,10.59-34.15,4.24-68.32,8.22-102.48,12.34-30.1,3.63-60.19,7.33-90.3,10.92-11.46,1.36-22.94,2.5-34.42,3.74-9.52,1.17-9.53,1.17-9.53-8.26q0-151.75,0-303.49c0-10,0-9.91,10-12.23,6.79-1.59,13.63-3.12,20.11-5.81,5.84-2.44,9.32-6.78,9.73-13.17.46-7.21-4.1-12.46-11.39-13.17a58.74,58.74,0,0,0-20,1.92c-7.59,1.88-8.4,1.13-8.41-6.56q0-40.1,0-80.2c0-3.09-.66-6.34,4-7,23.2-3.55,45-12.42,67.52-18.45,29.56-7.91,59.43-14.48,89.1-21.89,78.76-19.64,157.85-37.9,236.91-56.21,43.39-10.06,86.6-20.87,130.24-29.9,28.73-5.95,57.74-11,85.78-20,2.86-.93,5.63-1.25,8.33.46a9.4,9.4,0,0,0,8.29,1c23.44-6.51,47.33-11.15,70.91-17.06a84.93,84.93,0,0,0,13.71-4.51c9.36-3.57,19.12-6,28.06-10.81,6.53-3.53,14.23-4,21.43-5.51,17.82-3.73,35.64-7.44,53.35-11.67,3.15-.75,7-3.05,9,2.06l-.18.13a4,4,0,0,0-1.37,1.32l-.08.09a4.54,4.54,0,0,0-1.37,1.39l-.06.06a4.25,4.25,0,0,0-1.35,1.32l-.13.16C1051.88,1032.1,1052.3,1033.48,1051.45,1034.18Z"/><path class="cls-5" d="M169.16,1142.35c0-7,.39-14-.12-20.95-.43-5.75,1.93-8,7.25-9.25,22.42-5.49,44.75-11.35,67.11-17.08q62.88-16.12,125.76-32.28,62.5-16.12,125-32.36,66.35-17.13,132.73-34.17,91.13-23.55,182.23-47.2c37.93-9.86,75.8-19.95,113.76-29.71,41.44-10.66,83-20.92,124.43-31.61,27.24-7,54.4-14.39,81.53-21.84,4.4-1.21,6.55-.8,6.16,4.21-1.46,18.74.55,37.47.22,56.23-.11,6.39-1.77,9.23-8.21,10.8q-89,21.66-177.86,43.91c-34.53,8.59-69,17.44-103.53,26-35.69,8.86-71.44,17.49-107.15,26.27q-94.89,23.33-189.77,46.71c-52.3,12.83-104.64,25.49-156.93,38.36q-90.64,22.32-181.24,44.87c-10.49,2.6-21,5.22-31.52,7.65-8.56,2-9.68,1-9.73-7.61,0-7,0-14,0-21Z"/><path class="cls-6" d="M1155.42,901.83c0-10.12.27-20.24-.1-30.35-.2-5.53,1.62-5.93,6.18-4.17,19.51,7.51,39.14,14.73,58.66,22.21q50.17,19.23,100.26,38.65c33.83,13.17,67.57,26.58,101.38,39.81,40.29,15.77,80.54,31.63,120.94,47.13,44,16.86,87.48,34.82,131.62,51.26,50.45,18.79,100.29,39.2,150.94,57.48,2.67,1,4.07,2.34,4.07,5.12,0,20.48-.1,41,0,61.43,0,4.68-2.4,3.56-5.11,2.55-27.69-10.31-55.43-20.49-83.09-30.87q-46.57-17.5-93-35.3c-30.74-11.77-61.35-23.91-92.16-35.5-33.73-12.69-67.11-26.28-101-38.7-40.62-14.9-80.81-30.95-121.21-46.44q-59.61-22.85-119.27-45.56c-18-6.85-36-13.68-54-20.27-3.83-1.4-5.2-3.42-5.12-7.4C1155.56,922.55,1155.41,912.19,1155.42,901.83Z"/><path class="cls-7" d="M682.19,2205.67c-100.7,0-201.4-.35-302.1.15-47,.23-93.93.24-140.9.57-8.81.07-8.81,0-8.83-8.74,0-7.94.2-15.9-.11-23.84-.18-4.76,1.71-6.37,6.29-6.43,10.82-.15,21.65-.82,32.48-1,52.26-.74,104.52-1.24,156.78-2.07,49.36-.77,98.72-1.46,148.06-2.89,40.7-1.19,81.41-.49,122.1-1.4,56.58-1.25,113.16-2.19,169.74-3.13,37.81-.62,75.63-.21,113.43-1.32,41.9-1.22,83.81-.53,125.71-1.39,7.22-.15,14.44-.3,21.65-.72,5.35-.31,7.8,1.18,7.6,7.25-.42,12.51-.35,25.06.14,37.56.24,6-2.16,7.22-7.57,7.21-49.62-.12-99.25,0-148.88,0q-147.79,0-295.59,0Z"/><path class="cls-8" d="M862,1076.14c-3.1,2.38-6.63,2.31-9.2-.11-3-2.78-5.18-1.83-8.34-.65-11.45,4.28-23.42,6.77-35.35,9.33-34.17,7.34-68.36,14.6-102.46,22.27-22.61,5.08-45,11-67.6,16.19-41.3,9.57-82.66,18.85-124,28.39-19.6,4.53-39.13,9.34-58.67,14.12-38.8,9.49-77.52,19.29-116.52,28-19.09,4.25-38.17,9-56.69,15.26C267,1214.34,250.8,1219,234,1221.84c-4.22.72-2.29,3.67-2.31,5.5-.16,21.19-.1,42.38-.1,63.57,0,5.54.27,11.1-.1,16.61-.34,5.22,1.81,5.69,5.91,4,6.85-2.76,14-2.91,21.29-2.71,8.15.23,13.09,4.25,14.65,12.14,1.36,6.82-2.72,15.64-8.94,18.11-8.91,3.53-18.05,6.49-27.67,7.36-3.63.32-5.19,1.94-5.13,5.46,0,2.41,0,4.82,0,7.23l0,299.09c0,8.93,0,8.93,8.81,9.33-9.47,3-10.31,2.35-10.31-7.39q.15-229.79.36-459.55c0-6.39-2.87-14,1.34-18.89,3.87-4.46,11.58-3.74,17.6-5.24q67.14-16.71,134.34-33.2c49.25-12.06,98.57-23.84,147.8-36,49-12.06,97.76-25,146.9-36.4,39.57-9.16,78.82-19.57,118.35-28.84,19.17-4.49,38.17-9.73,57.27-14.58a39.31,39.31,0,0,1,5-.61,68.52,68.52,0,0,0,8.74-2.61l2.74-.34c1.31-1.09,3.25,0,4.5-1.29a2.15,2.15,0,0,1,1.2-.19c3-.88,6.36-.24,8.93-2.54l2.71-.31c1.31-1.11,3.29,0,4.51-1.35a2.61,2.61,0,0,1,1.27-.12c1.33-1,3.24,0,4.51-1.25a2.42,2.42,0,0,1,1.21-.22c1.36-1,3.29,0,4.58-1.26l2.7-.16c1.32-1.07,3.3.07,4.5-1.36h0c3.81-1.18,8.09-.38,11.59-2.81a2.31,2.31,0,0,1,1.4-.08c.93.27,0-.44.68.14,8,7,17.18,4,26.05,3.18,5.78-.55,10,1.42,12.15,6.75,2,5,5.59,6.63,10.59,7a84,84,0,0,1,12.1,1.73,4.87,4.87,0,0,1,4.05,3.66,3.71,3.71,0,0,1-2.62,4.58c-12.85,2.68-24.27,9.73-37.24,12-1.63-5.06,2.65-8.45,3.66-12.8,3.34-14.44,2.25-15.93-12.12-12.74-22.5,5-45.68,7.26-67.18,16.36-2.66,1.12-5.21,2.67-8,3.21-7.56,1.43-11.06,6.41-11.91,13.5C853.37,1065.11,852.88,1072.69,862,1076.14Z"/><path class="cls-9" d="M1468.18,2205.44H1173.24c-4.34,0-8.69-.27-13,0-4.74.27-6.3-1.66-6.22-6.33q.35-18.79,0-37.59c-.1-5,1.72-6.85,6.75-6.65,32.22,1.34,64.44,2.52,96.66,3.72,16.12.6,32.24,1.54,48.37,1.65,31.79.21,63.55,1.79,95.27,3.51,21.88,1.18,43.78.8,65.66,2.15,36.75,2.28,73.57,3.37,110.36,4.93,21.39.91,42.8,1.63,64.19,2.64,41.6,2,83.21,3.59,124.84,4.58a10,10,0,0,1,3.57.42c3.86,1.66,10.43-2.07,11.65,2.78,1.7,6.78,2.72,14.2.85,21.4-.73,2.78-3.12,2.6-5.29,2.63q-7.59.08-15.18.08-146.75,0-293.5,0Z"/><path class="cls-10" d="M950.16,1050.09c10.23-6.63,22.08-9,33.42-12.75,1.95-.64,5-.16,4.9-3.07-.12-3.3-3.22-3-5.54-2.91-5.09.29-9.84-2-15-1.6-4,.34-5.18-3-6.05-6-1.73-6-4.82-8.56-11.62-7.15-5.28,1.09-10.91.06-16.11,2.77-1.83,1-5.21,1.92-3.95-3.31.63-2.64-5.33-1.63-6.11-5l0-.08c3.4-.91,7.13-.65,10.2-2.78q56.29-13.9,112.58-27.82,34.62-8.61,69.17-17.53c4.17-1.07,8.52-1.24,12.57-3.07,3.64-1.65,5.36.24,5.35,4.06,0,13.24-.09,26.48,0,39.71,0,3.45-1.73,4.23-4.75,4.93-19.64,4.59-39.22,9.44-58.83,14.2a64.86,64.86,0,0,0-12.94,4.37c-2.06-2.21-4.28-1.18-6.66-.56-18.54,4.84-37.34,8.49-56.08,12.46-8.86,1.88-18.1,2.74-26.37,8.61-6.07,4.3-14.86,4.76-22.45,6.94C945.47,1051.2,946.88,1049.74,950.16,1050.09Z"/><path class="cls-11" d="M1781.73,2154.8c-.58-13.21-.58-13.2-13.7-13.2s-26.49-.14-39.74.06c-6.18.09-10.22-2.72-12.1-8.25-2-5.84-2.33-11.81,1.92-17.09,1.91-2.37,4.73-1.75,7.29-2.26,13.89-2.8,27.72.45,41.58.14,16.23-.36,14.55,1.67,14.55-14.88q.06-448.62.08-897.25c2.41,2.1,1.47,4.94,1.47,7.46q0,280.64-.1,561.26,0,187.08-.09,374.17C1782.89,2148.25,1783.86,2151.73,1781.73,2154.8Z"/><path class="cls-12" d="M1276.79,819.92c0,12.18-.08,12.36-12,9Q1220.1,816.38,1175,805.5a10.89,10.89,0,0,1-3.93-1.65c-1.57-1.15-2.78-20.89-1.52-22.43,2.13-2.58,4.58-.58,6.64-.07,15.35,3.76,30.66,7.74,46,11.71,14.38,3.74,28.77,7.44,43.1,11.36C1276.86,807.59,1276.83,807.73,1276.79,819.92Z"/><path class="cls-13" d="M232.92,1687.65c-1.33,2.41-1.38,5-1.38,7.71q.08,41.17.07,82.35c0,1.2,0,2.41.08,3.61.08.93.07,2,1.26,2.32a2,2,0,0,0,2.55-1.88c.14-6.37,4.47-4.93,8.09-4.31a23.35,23.35,0,0,1,9.41,3.49c7.14,4.88,7.57,11.07,1.74,17.4-4.44,4.82-9.32,8-16.18,8.06-4.55,0-7.13,2.11-7.1,7.62q.34,62.13,0,124.25c0,5.53,1.86,6.74,7.08,6.91,6.68.21,13.22-1.8,20-.39,9.42,2,14.29,7.31,15.15,15.51.75,7-8.18,16.59-15,18a88.25,88.25,0,0,1-17.9,1.41c-8.48,0-9.16.74-9.17,9,0,30.58,0,61.16-.1,91.74,0,2.56.85,5.35-1.26,7.59q0-52-.09-103.92-.06-142.56.05-285.12C230.18,1695.27,227.4,1690.28,232.92,1687.65Z"/><path class="cls-14" d="M1261.17,860.7c-.45,4.29-1.34,8.59-1.24,12.87.13,6.07-2.5,6.22-7.12,4.43-15-5.82-30-11.5-45.11-17.18-9-3.39-17.93-6.84-27-10-4.74-1.65-6.69-4.26-6.56-9.55.32-13.58,0-13.46,12.9-10.39,22,5.22,43.65,11.45,65.37,17.54C1261.23,850.91,1261.2,851,1261.17,860.7Z"/><path class="cls-15" d="M1453.46,2144.48q0-127.93-.08-255.86,0-44.08,0-88.18c0-8.18-.16-7.53-8.42-8.86-10.46-1.68-21.08-.68-31.5-2.67-3.35-.64-5.77-1.83-7.37-4.94-3-6-2.18-12.29-1.3-18.38.52-3.58,4.42-4.63,7.74-5.64,11.87-3.57,23.85-2.52,35.35.65,6.3,1.74,5.53-.87,5.51-4.77q-.07-25.65,0-51.32c0-3-.9-6.48,3-8.08-2.36,5.53-1.66,11.37-1.66,17.11q0,203.71-.07,407.43C1454.67,2128.8,1456.09,2136.77,1453.46,2144.48Z"/><path class="cls-16" d="M1155.25,789c0,11.45,0,11.37-10.85,14.5-20.09,5.79-40.14,11.7-60.22,17.5-8,2.31-8,2.23-8-5.64,0-15,0-14.88,14.2-19.2,18.85-5.74,37.62-11.74,56.46-17.52,8.39-2.58,8.42-2.48,8.44,6Z"/><path class="cls-17" d="M1155.1,831c.51,4.08-.6,6.27-5.64,6.76-15.41,1.48-29.76,7.4-44.54,11.51-2.63.74-6.14,3.88-7.88-.92-1.52-4.19-.08-7.23,4.65-8.8,15.48-5.15,30.9-10.39,46.84-14.07C1154.05,824.24,1155.76,825.59,1155.1,831Z"/><path class="cls-15" d="M1431.52,2144.61h21.86C1446.09,2147.3,1438.8,2146,1431.52,2144.61Z"/><path class="cls-18" d="M922.71,1011.11c-3.2,3.65-7.5,2.8-11.59,2.81C914.7,1011.82,918.76,1011.66,922.71,1011.11Z"/><path class="cls-18" d="M934.28,1008.17c-2.75,3.28-6.47,3.06-10.2,2.78A22.8,22.8,0,0,1,934.28,1008.17Z"/><path class="cls-18" d="M867.76,1024.3c-2.43,2.48-5.46,3-8.74,2.61A14.29,14.29,0,0,1,867.76,1024.3Z"/><path class="cls-18" d="M885.13,1019.94c-2.16,3.72-5.69,2.59-8.92,2.54C878.94,1020.8,882.05,1020.42,885.13,1019.94Z"/><path class="cls-18" d="M911.12,1013.91c-1.11,1.73-2.8,1.56-4.5,1.36A5.53,5.53,0,0,1,911.12,1013.91Z"/><path class="cls-18" d="M903.92,1015.43c-1.19,1.64-2.88,1.48-4.58,1.26C900.62,1015.37,902.23,1015.28,903.92,1015.43Z"/><path class="cls-18" d="M875,1022.67c-1.15,1.65-2.82,1.48-4.5,1.29C871.75,1022.67,873.34,1022.56,875,1022.67Z"/><path class="cls-18" d="M898.13,1016.91c-1.17,1.63-2.83,1.46-4.51,1.25C894.87,1016.81,896.48,1016.78,898.13,1016.91Z"/><path class="cls-18" d="M892.35,1018.28c-1.13,1.69-2.81,1.55-4.51,1.35A5.71,5.71,0,0,1,892.35,1018.28Z"/><path class="cls-10" d="M1051.45,1034.18a2.46,2.46,0,0,1,1.45-2.7A3.09,3.09,0,0,1,1051.45,1034.18Z"/><path class="cls-10" d="M1053,1031.33l1.35-1.32Z"/><path class="cls-10" d="M1054.44,1030l1.37-1.39Z"/><path class="cls-10" d="M1055.89,1028.47l1.37-1.32Z"/><path class="cls-19" d="M1244,1144.26c11.79-9.67,26-13.74,40.54-15.68,34.74-4.63,65.12,6.26,91.33,28.89,10,8.66,15.95,19,15.85,33.73-.72,99.18-.51,198.37-.61,297.56,0,2.17.09,4.35-.11,6.5-.79,8.47-2.22,16.44,10.48,18,5.7.71,8.64,7.18,8.66,13.58,0,11.08.21,22.16,0,33.23s-6.53,16.49-17.41,14.38c-16.28-3.16-32.63-5.86-49-8.63-29.1-4.93-58.12-10.26-87.18-15.4-5.91-1-11.88-1.78-17.73-3.08-8.93-2-12.63-6.55-12.74-15.71-.14-10.35,0-20.71.09-31.06.09-11.28,4.37-15.72,16-16.81,1.32-2.24.69-4.7.7-7.06,0-21.4-.14-42.81.1-64.21.14-12.72-2-25.41-1.63-38,.64-22.28,1.66-44.55,1.6-66.86q-.19-77.91,0-155.83C1243.07,1149.34,1242,1146.57,1244,1144.26Z"/><path class="cls-19" d="M1392.27,1833.68q0,68.31,0,136.6c0,11.79-.42,23.58-.87,35.37-.14,3.65.64,5.41,4.67,6.45,9,2.3,12.68,7.6,12.75,16.76.08,10.84.18,21.68,0,32.52-.25,11.61-4.49,15.9-16,15.29-20.41-1.08-40.79-2.75-61.19-4.06-12.24-.79-24.52-.6-36.78-1.63-17.25-1.45-34.58-2-51.87-3-8.65-.51-13.8-5.66-13.91-14.39-.16-12.76,0-25.53.19-38.3.09-6,3.56-10.3,9.44-10.59,4.94-.24,5.32-2.71,5.25-6.5-.14-8-.07-15.9-.07-23.85,0-94.68.47-189.36-.61-284-.22-19.26,7.15-30.15,23.16-37.87,33.66-16.23,74.18-17.3,105.31,10.5a157.29,157.29,0,0,1,18.34,20.22c2.62,3.33,2.47,7.13,2.47,11q0,69.75,0,139.49Z"/><path class="cls-20" d="M1587.91,1389.93q0,74.08-.08,148.17c0,4.05.88,6.23,4.8,8.34,6.43,3.45,10.11,9,9.67,17.15-.55,10.09,0,20.23-.19,30.35-.13,10.42-5.12,14-15.36,12.17q-51.06-9.22-102.18-18.07c-9.47-1.65-19-3.06-28.49-4.46-11.28-1.66-16.36-6.72-16.74-18-.37-10.81-.75-21.66.77-32.46,1-7.37,3.87-10.48,11.48-11.36,2.93-.34,3.93-.86,3.91-4.26q-.43-83.12-.46-166.24c-.06-45,.18-90.11-.18-135.16-.06-7.32,2.79-11.67,8.36-15.41,26.38-17.69,71.06-16.65,97.55,5.57,6.81,5.71,13.54,11.45,19.4,18.3s8.24,13.92,8.16,23c-.37,47.46-.17,94.93-.17,142.4Z"/><path class="cls-21" d="M1754,2095.27a5.37,5.37,0,0,0-1.33.14,21.61,21.61,0,0,1-11.56,0c-33.27-3.63-66.74-3.88-100.11-5.73-10.66-.59-14.17-3.68-15-14.4-.91-12.25-.2-24.53.68-36.79.34-4.63,3.63-7.14,7.44-7.73,5.21-.82,5.81-3.57,5.8-8q-.18-142.33-.17-284.67c0-17.83,5.76-26.73,22.83-33.13,15.86-6,32-6.3,48-.16,12.45,4.79,24,11.2,33.23,21.12,3.91,4.19,6.24,8.6,6.21,14.72-.34,78-.41,156-.67,234.08-.07,18.53-.52,37.07-1,55.59-.1,3.93-.12,6.7,4.87,7.74,5.83,1.22,8.73,5.88,9.06,11.68.69,12-.66,24-1,36.06-.08,2.49-1.72,4.46-2.93,6.53a5.33,5.33,0,0,1-1.39,1.45l-.06,0C1756.21,2094.82,1754.84,2094.5,1754,2095.27Z"/><path class="cls-22" d="M1749.64,1437.41q0,67.2-.05,134.42c0,4.27.15,7.64,4.83,10,4.53,2.27,6.42,6.93,6.32,12.16-.19,8.9-.27,17.81-.53,26.71-.33,11.82-5.36,15.82-17,13.68-33.79-6.2-67.51-12.78-101.54-17.61-10.08-1.43-14.37-6.26-14.45-16.46s-.22-20.2.74-30.31c.51-5.37,2.45-9.18,7.3-11.42,2.18-1,3.54-2.12,2.77-5-1.72-6.36-.87-12.93-.89-19.39q-.24-129.36-.37-258.73c0-5.78,1.88-9.52,6.35-13.46,17.68-15.52,56.1-15.32,77.18.58,11,8.3,19.51,18.36,27.38,29.32,2.61,3.64,2.43,7.67,2.43,11.77v133.7Z"/><path class="cls-23" d="M1244,1144.26c-.16,5.53-.45,11.06-.45,16.59q.06,158.55.15,317.09c0,2,1,4.42-1.46,5.85q0-44.76-.08-89.52c0-7.53-1-9-8-8.64-13.39.76-26-4.25-39.17-4.8-6.65-.28-10.93-5.29-11.84-11.74a47.24,47.24,0,0,1,1.4-18.55c1.09-4.15,7.37-6.3,13.58-5q17.61,3.57,34.94,8.3c9,2.47,9.11,2.26,9.11-7.36q0-96.75.07-193.49C1242.31,1150,1240.84,1146.61,1244,1144.26Z"/><path class="cls-11" d="M1755.47,1686.43c-16.12-3.3-33.06-1.06-48.77-7.2-5.8-2.28-8.63-17.46-4.32-22,1.77-1.85,4-1.37,6.1-1.37,12.25,0,24.27,2.58,36.44,3.46,7.39.54,14.74,1.76,22.13,2.21,5,.31,9.7,0,10.3,7,.75,8.7-1.89,14.75-8.31,16C1764.61,1685.46,1760.18,1687,1755.47,1686.43Z"/><path class="cls-11" d="M1741.13,2095.4h11.56A11.23,11.23,0,0,1,1741.13,2095.4Z"/><path class="cls-11" d="M1754,2095.27a3.48,3.48,0,0,1,2.89-1.46A2.56,2.56,0,0,1,1754,2095.27Z"/><path class="cls-11" d="M1757,2093.78c.46-.48.92-1,1.39-1.45C1757.89,2092.81,1757.43,2093.3,1757,2093.78Z"/><path class="cls-24" d="M1065.62,1818.41q0,80.92-.06,161.86c0,3.54.47,5.74,4.47,6.81,7,1.88,10,7.32,10.11,14.16.2,11.8.35,23.62-.08,35.41-.38,10.69-7,16.34-17.83,16.57q-77.26,1.61-154.54,3.31c-4.8.11-9.59.86-14.4.92-9.11.11-14.8-4.88-15.08-13.83-.35-11.31-.4-22.65.06-33.95.38-9.47,4.44-13.76,13.93-15.38,3.6-.61,4.28-2.3,4.11-5.34-.31-5.53-.74-11.06-.67-16.59,1.15-96.57.68-193.15,1-289.72,0-9.7,3.57-17.6,10.08-24.7,16.36-17.81,36.68-27.22,60.4-30.92,24.68-3.85,48.84-3.65,72.6,4.79a79.17,79.17,0,0,1,14.27,6.89c8.13,4.91,11.82,11.65,11.77,21.47-.3,52.74-.14,105.49-.14,158.24Z"/><path class="cls-25" d="M845.93,1837.46q0,75.49,0,151c0,4-.38,7,5.32,8s9.38,5.61,9.37,12.1c0,12.52.17,25.05-.06,37.57-.14,7.35-4.48,12-11.77,13.31a66.09,66.09,0,0,1-10,1c-34.67.68-69.34,1.21-104,1.93-15.88.32-31.76,1.08-47.64,1.41-11.21.24-16.13-4.79-16.17-16.13,0-9.63,0-19.26.14-28.89s3.18-13.78,12.67-15c4.83-.65,4.94-3.17,4.94-6.84q-.13-113.07-.14-226.14c0-22.15.22-44.31-.15-66.46-.13-7.67,2.84-13.15,7.9-18.49,18.71-19.77,42.29-28.36,68.69-31.42,23.48-2.72,46.09-1.23,67.3,10.4,9.2,5,14.09,12,14,23.09-.34,49.85-.15,99.7-.15,149.55Z"/><path class="cls-19" d="M486.07,1865c0-46,.23-92-.16-138-.1-10.9,4.24-18.13,12.82-24.07,35.91-24.84,74.69-30.3,116.21-17.61a55.75,55.75,0,0,1,10.47,4.84c8.19,4.56,12.38,11,12.23,21-1.46,95.86-.87,191.73-1,287.59,0,4.68-.81,8.87,6.41,9.14,5,.18,7.84,4.84,7.94,9.78.26,11.8.5,23.63-.18,35.4-.6,10.41-5.75,14.61-16.43,15.06-38.49,1.62-77,3.43-115.5,4.19-11.31.22-22.6,1.21-33.91,1.44-9.64.19-14.89-4.93-15.05-14.43q-.27-15.18.1-30.35c.18-8.47,4-13.64,12.21-15.31,4.41-.9,3.67-3.48,3.67-6.3q0-71.19,0-142.37Z"/><path class="cls-26" d="M440,1858.51c0,56.32.53,101.84-.46,147.35-.1,4.62-.29,8,6,9,5.24.84,7.35,6.17,7.46,11.2.24,11.31.3,22.65-.21,34-.39,8.4-6.6,14.13-15,14.73-4.8.34-9.63.25-14.45.33q-65,1.13-130,2.25c-7.4.13-13.32-4.63-13.63-12.11-.49-12-.5-24.08-.1-36.1.19-5.89,4-9.85,10.06-10.43,3.57-.34,4.16-1.76,4.16-5q0-127.52.15-255c0-4.81.51-9.67.05-14.44-.77-8.05,2.54-14,8.57-18.73,30.42-24.13,81.36-38.53,123.43-16.62,10.23,5.33,15.3,12.82,15.09,24.71C440.24,1778.79,439.43,1824.05,440,1858.51Z"/><path class="cls-27" d="M487.53,2101.11c7.7,0,15.41,0,23.12,0,8.61,0,13.21,3.27,14.38,10,1.22,7.12-2.64,13.34-10,16.22-9.12,3.56-18.71,5.32-28.27,3.87a138.48,138.48,0,0,0-30.21-.95c-11.1.73-18.65-10.47-13.77-21.53,1.67-3.78,4.39-5.65,8.77-6.32C463.52,2100.59,475.53,2101.41,487.53,2101.11Z"/><path class="cls-28" d="M971.82,2119.92c-6,0-10,.12-14.13,0-8.25-.31-13.12-5.85-13.25-14.84-.1-8.07,5.12-13.43,13.26-14.05,15.77-1.2,31.63-.82,47.37-2.75a30.42,30.42,0,0,1,12.13,1.08c9.74,2.77,13.21,14.17,6.4,21.54-4.78,5.17-10.13,8.5-17.68,7.71C993.91,2117.32,982,2121,971.82,2119.92Z"/><path class="cls-29" d="M1066.12,1289q0,80.21-.08,160.43c0,3.6.31,5.45,4.57,6.32,7.85,1.6,12.43,8.11,12.5,16.32.08,9.87.12,19.75,0,29.62-.15,10.07-6.19,16.75-16,18.09q-59,8-118,15.92c-17.87,2.37-35.79,4.45-53.69,6.65-9.43,1.16-15.73-4.25-15.87-13.91-.14-9.87-.09-19.75,0-29.63.14-11.81,3.61-16.25,15.08-19,2.63-.63,2.6-1.81,2.54-4-2.5-105.24-1.28-210.5-1.68-315.75a27.64,27.64,0,0,1,5.66-16.81c16.2-22,36.33-38.88,63.77-44.14,30.48-5.85,60.38-3.91,88.47,11,8.91,4.74,13.08,11.5,13,22.07-.36,52.27-.16,104.54-.16,156.82Z"/><path class="cls-30" d="M845.83,1306.5c0,41.66.11,83.33-.05,125-.06,16.36-.54,32.73-1.19,49.08-.17,4.35.76,6,5.37,5.94,5.88-.09,9.61,3.72,10.46,9.13a140,140,0,0,1,.59,37.42c-1.15,10.13-5.7,14.21-15.85,15.72-17.12,2.55-34.28,4.83-51.42,7.23q-50.34,7.07-100.69,14.14c-4.53.64-9.41,1.73-13.54-.2-5.54-2.6-9.78-6.71-9.75-13.86,0-9.87-.6-19.73-.71-29.6-.11-10.37,4.5-15.65,14.78-16.64,3.32-.31,4.57-1,4.46-4.65-2.32-79.94-.61-159.89-.95-239.83-.08-19.75.23-39.5-.14-59.24a30.32,30.32,0,0,1,8.38-22.26c23.06-25,51.36-38.85,85.4-41.63,18.12-1.49,34.89,1.31,50.69,10.41,9.33,5.38,14.44,12.47,14.36,23.81-.31,43.34-.13,86.69-.13,130Z"/><path class="cls-26" d="M636.81,1362.91q0,68.63,0,137.26c0,2.88.34,5.77.33,8.65,0,5.31.05,9.46,7.62,10,5.06.36,7.35,6,7.5,11.08.33,11.07.48,22.16.1,33.23-.29,8.58-5.29,13.74-13.74,14.92-31.43,4.37-62.89,8.6-94.33,12.92-19,2.62-38.1,5.21-57.12,8-9.8,1.43-16.29-3.15-16.61-13-.35-10.82-.21-21.67.18-32.5.25-6.75,2.74-12.37,10.71-13,3-.25,3.27-2,3.12-4.48-2.5-39.69-.93-79.42-1.14-119.12-.28-54.43.3-108.85-.27-163.27-.13-13,4.54-22.87,13.45-31.25,31.3-29.44,68.2-39.08,110-30.14a66.82,66.82,0,0,1,22,8.92c5,3.21,7.86,7.45,7.83,13.67-.06,14.93.19,29.86.21,44.79q.06,51.64,0,103.31Z"/><path class="cls-26" d="M438.17,1399q0,71.16,0,142.32c0,4.13-.76,7.79,5.86,8,5.29.12,8.32,5.31,8.53,10.21.52,11.78.48,23.6,0,35.38-.25,5.93-4.46,9.53-10.33,10.35-39,5.44-78.11,10.72-117.16,16.14-11,1.52-21.88,3.23-32.79,5-10.6,1.75-16.41-2.23-17-13-.57-10.56-.36-21.19-.06-31.77.17-6,3.62-10.31,9.78-10.51,6-.19,6.17-3.31,6.17-7.9q-.15-110.89-.08-221.79c0-19-.11-38,.8-57.05a20.67,20.67,0,0,1,4.51-12.59c19.28-24,45-36.12,74.8-40.81,12.68-2,25.36-2.52,38.08-.25a50,50,0,0,1,18.07,7c7.14,4.51,11,10.74,11,19.72-.21,47.2-.1,94.4-.1,141.6Z"/><path class="cls-18" d="M950.16,1050.09a9.24,9.24,0,0,0-4.28,4.38c-5.26,4.37-12,4.68-18.16,6.18-21.87,5.3-43.8,10.35-65.72,15.49-9.15-.26-10.07-1.15-10.13-9.89,0-2.89-.1-5.78,0-8.66.33-7.46,5.2-13,12.37-14.93,3.2-.86,6.19-2.55,9.26-3.92,14.32-6.37,29.68-8.77,44.9-11.73,10.32-2,20.61-4.14,30.91-6.24,7-1.42,8.68,0,8,7.12A53.06,53.06,0,0,1,950.16,1050.09Z"/><path class="cls-31" d="M1307.24,1418.77q0,33.92,0,67.84c0,7.43-1.14,8.37-8.43,7.06-7.53-1.35-15-3-22.58-4.16-5.72-.92-8.35-3.09-8.09-9.74,1.15-29.29,2-58.59,1.56-87.92-.22-16.84-.08-33.68,0-50.52,0-6.79.24-6.83,7.1-5.32q11.57,2.57,23.17,4.93c5.1,1,7.55,3.39,7.46,9.26-.36,22.85-.15,45.71-.15,68.57Z"/><path class="cls-32" d="M1363.94,1371.48c2.15,16.83,1.73,36.85.89,56.74-1,24.29-.84,48.56-.91,72.84,0,4.89-1.6,5.56-5.93,4.58-8.18-1.85-16.44-3.33-24.71-4.73-5.22-.89-7.38-3.05-7.34-8.94.33-43.57.23-87.15.24-130.72,0-14.06,0-14.07,13.58-10.54,4.41,1.15,8.8,2.38,13.21,3.53C1366.47,1357.75,1363.53,1356.42,1363.94,1371.48Z"/><path class="cls-33" d="M1307.25,1262.41c0,20.44-.1,35.37.06,50.3,0,5-.87,7.13-6.61,5.34-8.24-2.56-16.71-4.37-25.15-6.19-5-1.07-7.49-3.27-7.24-8.79.8-17,.2-34.1.77-51.17.35-10.54.76-21.37-.32-32.12-.8-8,.24-16.18-.32-24.28-.19-2.73.93-4.59,3.8-5.26,10-2.36,20-1.89,30-.29,3.45.55,3.77,3,3.81,5.88C1306.38,1219.86,1308.16,1243.87,1307.25,1262.41Z"/><path class="cls-34" d="M1326.2,1260.34q0-28.14,0-56.29c0-6.61.41-7.06,6.28-4.51,8.81,3.82,17.41,8.13,26.14,12.14,3.7,1.71,5.42,4.28,5.23,8.49-.9,19.94,1.73,39.82,1.23,59.77-.4,16.08-1.95,32.13-1.23,48.23.19,4.15-1,5.6-5.49,4.25-8.71-2.62-17.57-4.82-26.45-6.84-4.72-1.08-5.91-3.68-5.86-8.23.21-19,.09-38,.09-57Z"/><path class="cls-35" d="M1243.91,1515.66v-.72c0-10.62.51-10.89,11-8.9,42.7,8,85.41,16.1,128.17,23.81,5.48,1,7.11,3,7.05,8.36-.15,14,0,14.29-13.74,11.85-38.08-6.75-76.12-13.78-114.17-20.69-2.83-.51-5.69-.9-8.51-1.46C1243.9,1525.93,1243.9,1525.91,1243.91,1515.66Z"/><path class="cls-36" d="M1296.43,1149.81c26.69-1.09,48.5,8.47,67.44,25.55,4.76,4.29,7.19,10.15,10.6,15.34.93,1.41,1.46,3.34,0,4.65-1.32,1.16-2.72-.2-3.9-.85a266.21,266.21,0,0,0-45.74-19.24,216.17,216.17,0,0,0-46.37-9.24c-2.77-.27-5.65.86-8.49,1.16s-4.37-.48-4-4c.6-6,2-10,9.15-11.26A105.41,105.41,0,0,1,1296.43,1149.81Z"/><path class="cls-37" d="M1307.26,1775.12q0,32.51,0,65c0,6.68-.55,6.82-7,6-7.83-1-15.72-1.61-23.59-2.32-7.29-.65-8.23-1.54-8.23-8.67,0-39.48.17-78.95-.16-118.42-.06-6.85,3.38-9.84,8.7-11.27,6.91-1.86,13.92-3.54,21.25-3.33,8.88.25,9,.18,9,8.8q0,32.13,0,64.26Z"/><path class="cls-38" d="M1326.19,1776.57c0-21.68.1-43.36-.07-65,0-5,.75-7.1,6.46-5.32,9.15,2.85,18.45,5.16,27.06,9.55,3.84,2,5.52,4.69,5.51,9.17q-.18,60.69,0,121.4c0,5.43-2.08,6.67-6.93,5.89-8.29-1.33-16.6-2.84-25-2.6-5.36.14-7.15-2-7.11-7.29.19-21.92.08-43.84.08-65.76Z"/><path class="cls-39" d="M1268.34,1933.73q0-30.3,0-60.6c0-9.33,0-9.67,9.6-9,8.1.6,16.14,2,24.18,3.23,3.5.52,5.24,2.29,5.23,6.31q-.22,63.13,0,126.26c0,4.4-1.49,5.71-5.84,5.86-9.65.32-19.15-1.45-28.74-1.51-4.85,0-4.48-3.18-4.47-6.38q.06-25.25.08-50.5Z"/><path class="cls-39" d="M1326.15,1938.44q0-30,0-59.92c0-8,0-7.89,7.83-7.38,8.15.52,16.17,2.18,24.26,2.73,6.07.42,6.94,3.23,6.92,8.32-.13,30.32,0,60.64,0,91,0,10.11-.35,20.23.08,30.32.24,5.83-2.34,7.44-7.27,6.43-7.86-1.6-15.8-1-23.7-1.42-7.36-.4-8.11-1.39-8.11-8.68Q1326.14,1969.13,1326.15,1938.44Z"/><path class="cls-9" d="M1246.78,2035.05c-.12-12.26-.11-12.44,12.11-11.72q57.94,3.42,115.86,7.12c4.31.28,8.59,1.13,12.9,1.36,3.76.2,5.06,2.11,5,5.55,0,2.17,0,4.34,0,6.5,0,11.9,0,12-12,10.66-19.85-2.17-39.82-2.46-59.73-3.68-22.8-1.38-45.63-2.26-68.46-3.12-4.49-.17-6-2-5.75-6.17C1246.9,2039.39,1246.78,2037.21,1246.78,2035.05Z"/><path class="cls-40" d="M1299.61,1680.4c-8.71-.15-17.24,1.13-25.75,2.62a27.39,27.39,0,0,1-5,.35c-1.6,0-3.57.5-4.39-1.53s.57-3.24,1.83-4.32a48.1,48.1,0,0,1,5.73-4.33c25.45-16,57.36-15.63,79.68-.23,8.27,5.7,13.85,13.9,19.3,22.13.6.89,1.67,2.16.43,3.18s-2.06-.53-3.08-1C1346.3,1688,1323.83,1680.61,1299.61,1680.4Z"/><path class="cls-41" d="M1479.32,1457.07q0-30.69,0-61.38c0-7,.12-7.19,7.17-5.73,6.8,1.41,13.47,3.47,20.29,4.79,4.67.91,6,3.15,6,7.86-.26,18.05,0,36.11,0,54.16,0,22.63-.1,45.26.12,67.89.05,5.42-1,7.37-6.9,5.7-6.19-1.74-12.71-2.4-19.13-3.2-5.34-.66-7.79-2.64-7.67-8.7C1479.57,1498,1479.31,1477.53,1479.32,1457.07Z"/><path class="cls-39" d="M1529.92,1452.73c0-15.15.08-30.31-.05-45.46,0-4.68,1-6.84,6.29-5.07a158,158,0,0,0,18,5c5.95,1.26,8,4.2,7.9,10.46-.43,18.27-.59,36.58,0,54.84.61,18.7-.71,37.37-.16,56,.35,11.93.21,12-11.73,10.12-5.44-.85-10.83-2-16.25-3-4.17-.74-5.3-3.54-5.29-7.33,0-10.56.54-21.09,1.07-31.64C1530.47,1482.11,1529.91,1467.41,1529.92,1452.73Z"/><path class="cls-37" d="M1563.17,1335.93c0,17.23.07,30,0,42.74-.05,7.67-1.05,8.45-8.34,6.54s-14.28-4.17-21.48-6c-3.7-1-4.76-3-4.75-6.74.1-36.58,0-73.16,0-109.75,0-6.29,1.11-7,6.77-4.53,7,3,13.53,7.18,20.71,10,3.66,1.44,5.93,4.09,5.92,8.84C1562,1298.13,1564.17,1319.24,1563.17,1335.93Z"/><path class="cls-32" d="M1512.68,1311.6c0,18,0,36.07,0,54.11,0,7.18-.6,7.59-7.4,6s-13.48-3.33-20.26-4.82c-4.19-.92-5.8-3.09-5.78-7.54q.26-52.66.06-105.32c0-3.71,1-5.11,5-6.17,8.54-2.3,16.71-.14,25,.62,4,.37,3.4,4,3.4,6.86q0,28.13,0,56.26Z"/><path class="cls-42" d="M1586.25,1575.39c0,1.68-.06,3.37,0,5,.15,3.72-1,5-5.13,4.17-29.22-5.6-58.48-10.93-87.74-16.27-10.15-1.86-20.31-3.69-30.52-5.12-3.94-.56-5.14-2.16-5.31-6-.73-16.4-.82-16.54,15.24-13.59q53.43,9.84,106.81,19.94C1585.94,1564.75,1586.15,1565.19,1586.25,1575.39Z"/><path class="cls-43" d="M1505.43,1209.11c18.42,1.22,35.37,5.87,49.86,17.06A41.17,41.17,0,0,1,1569.9,1247c.5,1.63,1.21,3.51-.39,4.64-1.26.88-2.76-.37-4-1a251.62,251.62,0,0,0-30.67-14c-17.63-6.81-35.45-12-54.62-9.68-1.92.23-3.47.48-3.57-1.94-.14-3.28-.86-6.66,3-8.85A55.88,55.88,0,0,1,1505.43,1209.11Z"/><path class="cls-37" d="M1686.28,1820c0,19.75,0,39.5,0,59.25,0,6.55-.81,7.32-7.12,5.77-5.43-1.32-11-.48-16.47-1.68-4.19-.91-5.59-2.34-5.5-6.51.21-10.59,0-21.19,0-31.79,0-27.21.14-54.43-.14-81.64-.06-5.62,1.83-8.08,7.17-9.5,5.77-1.52,11.47-1,17.21-1,4.91,0,4.81,3.66,4.81,7.18q0,30,0,60Z"/><path class="cls-38" d="M1657.29,1966c0-18.76.18-37.52-.12-56.27-.09-5.6,1.91-7.45,7.15-6.63,1.65.26,3.45,0,5,.5,5.38,1.83,13.13-.91,16,4.19,2.4,4.24.86,10.76.87,16.28,0,33.43-.13,66.86.17,100.29,0,6.19-2,8-7.83,7.52-5-.38-10-1.1-15-1.25-5.18-.16-6.43-2.08-6.38-6.91.22-19.24.1-38.48.1-57.72Z"/><path class="cls-44" d="M1702.1,1822.54c0-19.25,0-38.51,0-57.76,0-6.82.7-7.16,7-4.24,17.62,8.16,17.64,8.16,17.65,27.77q0,43,0,85.92a55.72,55.72,0,0,0,.27,7.2c1.12,8.22.14,9.93-8,8.38-18.09-3.44-17.07,3.11-17-18.17C1702.16,1855.27,1702.1,1838.91,1702.1,1822.54Z"/><path class="cls-39" d="M1702.13,1970q0-27.1,0-54.22c0-7.8,0-7.73,7.48-7,2.87.29,5.7.65,8.55,1.2,8.55,1.65,8.58,1.51,8.58,10.52q0,53.85,0,107.7c0,7.41,0,7.31-7.19,6.66a63.22,63.22,0,0,0-10.11-.15c-5.68.41-7.55-2-7.48-7.61.27-19,.1-38.07.1-57.1Z"/><path class="cls-45" d="M1654.71,2048.92c29.83,2,58.59,4,87.36,5.87,3.27.21,4.89,1.2,4.82,4.64-.08,4.09,0,8.2.18,12.28s-1.76,4.6-5.38,4.35c-27.34-1.92-54.69-3.61-82-5.39a36,36,0,0,1-7.14-.82c-3.39-.93-8.37,1.43-10-2.25-2.25-5-1-10.88-.68-16.38.13-2.25,2.13-2.27,3.84-2.29C1649,2048.9,1652.4,2048.92,1654.71,2048.92Z"/><path class="cls-46" d="M1682.88,1720.81c19.3-.56,33.89,6.67,46.28,19.08a13.65,13.65,0,0,1,2.76,3.29c.67,1.34,2.58,2.83.93,4.4-1.2,1.15-2.79-.14-4-.68a155.81,155.81,0,0,0-38.91-12.4c-8.71-1.49-17.42-3.37-26.34-1.08-2.15.55-5.06,1.68-6.08-1.64-.82-2.68.93-4.75,3.14-5.9C1668.06,1722.07,1675.86,1720,1682.88,1720.81Z"/><path class="cls-47" d="M1686.22,1504.56c0,18.28-.16,36.57.11,54.85.07,5.1-1,6.95-6.38,5.49a125.17,125.17,0,0,0-16.25-3c-4.4-.58-6.36-2.83-6.34-7.15,0-5,0-10.11,0-15.16q0-48.35,0-96.71c0-8,0-8,8-6.65.24,0,.48.07.71.13,24.21,6.92,19.78-.86,20.14,24.85C1686.38,1475.69,1686.21,1490.13,1686.22,1504.56Z"/><path class="cls-48" d="M1702.19,1507.48c0-18.31,0-36.61,0-54.92,0-6.25,1.22-7.15,7.26-6,.47.09.91.3,1.38.42,21.1,5.68,16.94,1.13,17.11,21.67.27,32,0,64.07,0,96.11,0,9.17,0,9.13-9.21,7.13-3.51-.77-7-1.5-10.6-2-4.58-.59-6.28-2.62-6.2-7.54.33-18.3.13-36.61.13-54.92Z"/><path class="cls-49" d="M1686.23,1363q0,24.21,0,48.42c0,7.87-.34,8.1-8.34,6.22-4.44-1-8.87-2.84-13.33-3-6.45-.15-7.36-3.38-7.31-8.77.19-21.67.09-43.36.09-65,0-9.87.17-19.75-.07-29.63-.13-5.07,2-7.1,6.86-6.66a27.68,27.68,0,0,1,2.89.07c23,4.42,18.83-1.72,19.14,20.76.18,12.53,0,25,0,37.58Z"/><path class="cls-50" d="M1702.13,1368.63c0-15.87,0-31.74,0-47.61,0-6.41.95-7.06,6.4-4.35,4.93,2.47,9.65,5.38,14.61,7.8,3.87,1.9,4.8,5.15,4.81,8.91,0,30.06,0,60.13.12,90.19,0,4.77-1.68,6-6.14,4.5-4.09-1.33-8.32-2.87-12.54-3-6.81-.27-7.47-4-7.38-9.49C1702.29,1399.9,1702.12,1384.27,1702.13,1368.63Z"/><path class="cls-51" d="M1644.06,1588.12c0-1.87,0-2.83,0-3.79.16-6.86.62-7.44,7.66-6.41,8.55,1.25,17,3.2,25.52,4.69,21,3.68,41.92,8.39,63,12.18,5.27.94,6.58,3,6.52,8-.15,12.91.15,12.5-13,10-24.55-4.68-49.2-8.81-73.8-13.18-2.37-.42-4.7-1-7.07-1.45C1641.86,1596.22,1644.24,1596.15,1644.06,1588.12Z"/><path class="cls-52" d="M1680,1271.31c19.93-2.34,34.37,9.36,47,24.53a25.12,25.12,0,0,1,2.79,5c.61,1.23,1.82,2.66.46,3.89-1,.92-2.17-.32-3.23-.72-8.94-3.46-17.45-7.88-26.35-11.5a93.43,93.43,0,0,0-40.09-7c-2.32.1-6.24,1.72-6.77-1.71-.46-3,.33-6.84,3.69-8.86a23.43,23.43,0,0,1,11.55-3.67C1672.22,1271.24,1675.35,1271.31,1680,1271.31Z"/><path class="cls-53" d="M1042.83,1824.25c0,9.86-.36,19.74.14,29.57.3,5.89-1.8,8.35-7.46,8.64-7,.36-13.89,1-20.82,1.51-5.74.44-11.49.81-17.21,1.42-4,.43-5.69-1-5.54-5.18.22-6.25.16-12.51,0-18.76-.3-14.4-.51-28.81-1.18-43.2-.25-5.49.91-8.36,7.06-8.77,12.92-.86,25.8-2.21,38.67-3.61,5.42-.59,6.49,1.89,6.38,6.64C1042.66,1803.08,1042.82,1813.67,1042.83,1824.25Z"/><path class="cls-54" d="M973.12,1829.67q0,15.88,0,31.78c0,2.73.12,5.29-3.83,5.54-13.66.88-27.33,1.81-41,3-5.46.48-7.07-1.48-7-6.88.29-19.74.24-39.49.08-59.23,0-5.11.87-7.81,7-8.17,12.44-.74,24.81-2.57,37.24-3.77,7.28-.7,7.49-.38,7.51,7.36,0,10.12,0,20.23,0,30.35Z"/><path class="cls-55" d="M1025.38,2033c-20.22-.57-40.36,1.79-60.58,1.72-20-.07-40,.89-59.93,1.79-5.47.25-7-1.34-7-6.78.26-16.52,0-16.46,16.66-17q68.59-2.19,137.19-4.46c8.32-.26,8.33-.08,8.36,8.14.07,16.3.07,16.32-16.68,16.56C1037.43,2033.08,1031.41,2033,1025.38,2033Z"/><path class="cls-56" d="M1042.8,1726.05c0,10.11-.26,20.23.1,30.33.2,5.52-.81,8-7.24,8.33-11.72.55-23.37,2.44-35.06,3.71-8.23.89-8.68.48-8.69-7.66,0-20.23.21-40.46-.14-60.68-.09-5.43,2.21-7.31,6.88-7.85,12.63-1.47,25.27-2.85,37.88-4.49,4.76-.61,6.44,1,6.32,5.8-.27,10.83-.08,21.67-.08,32.51Z"/><path class="cls-57" d="M1042.9,1921c0,10.6-.08,21.2,0,31.8,0,3.38-.69,5.2-4.65,5.58-14.12,1.36-28.28,1.93-42.44,2.68-3.86.2-4.92-1.58-5-5.17-.39-21.43.6-42.83,1.08-64.23,0-2.28.19-4.33,3.26-4.58,14.84-1.2,29.68-2.53,44.52-3.7,4-.31,3.13,2.91,3.14,5.1C1043,1899.29,1042.9,1910.13,1042.9,1921Z"/><path class="cls-54" d="M921.42,1928.72c0-9.87.21-19.74-.09-29.6-.14-4.52,1.41-6.65,5.89-7,6.69-.55,13.36-1.38,20-2,6.46-.57,12.94-.83,19.38-1.52,4.06-.43,5.76,1.42,6.11,5.11.18,1.91.35,3.83.35,5.75,0,18.77-.12,37.54.14,56.31.07,4.84-1.26,6.91-6.28,7.12-13.43.57-26.85,1.45-40.27,2.35-4.21.28-5.41-1.58-5.34-5.5C921.52,1949.42,921.41,1939.07,921.42,1928.72Z"/><path class="cls-58" d="M973.16,1733.18c0,10.57,0,21.14,0,31.71,0,3.4-.27,6.36-4.75,6.41-13.21.15-26.27,2.12-39.41,3.2-5.07.42-6.67-1.36-6.59-6.43.33-20.18.38-40.36.31-60.55,0-3.82,1.26-5.9,5-6.37,13.07-1.63,26.15-3.18,39.2-4.9,4.75-.63,6.42,1.17,6.3,5.93C973,1712.51,973.16,1722.85,973.16,1733.18Z"/><path class="cls-59" d="M921.33,1681.83c-1.4-.27-3.26.66-3.83-1.23s.76-3.27,1.81-4.48c7.1-8.22,14.72-15.87,24.59-20.83q49.33-24.82,97.88,1.52a12.11,12.11,0,0,1,3,2c1.93,2,5.49,3.51,4.81,6.68-.75,3.47-4.49,1.93-6.85,2.22-20.24,2.48-40.5,4.73-60.75,7.08q-28.95,3.36-57.88,6.79C923.16,1681.67,922.2,1681.75,921.33,1681.83Z"/><path class="cls-60" d="M1042.78,1982c.41,3.44-1,5-4.46,5-6.25,0-12.47.75-18.69,1.12-16.8,1-33.71.55-50.44,2.1-14.4,1.34-28.87,0-43.18,2.12-2.83.42-4.76-.07-4.71-3.53.06-3.19-.29-5.77,4.5-6.4,13.14-1.74,26.38-1.15,39.55-2.33,17-1.51,34.12-1.19,51.18-2,7-.32,13.85-1.32,20.84-1.35C1041.35,1976.67,1043.39,1977.83,1042.78,1982Z"/><path class="cls-61" d="M761.08,1845.56c0,10.59-.14,21.18.08,31.77.08,4-1.29,5.45-5.35,5.58-12.74.39-25.49,1-38.2,1.86-4.31.3-6-.51-5.94-5.23q.36-31.05.06-62.1c0-4.41,1.38-5.61,5.75-5.85q19.1-1.06,38.11-3.23c4.27-.48,5.56.5,5.49,4.7-.19,10.83-.07,21.67-.07,32.5Z"/><path class="cls-62" d="M789.78,2017c14.92,0,29.84.32,44.74-.15,6.2-.2,8.24,1.83,7.51,7.71a33.93,33.93,0,0,0,0,7.93c.67,5.73-1.11,7.86-7.41,7.92-33.45.32-66.9,1.12-100.35,1.87q-19.12.42-38.23,1.35c-4.37.21-7-.76-6.64-5.79a28.71,28.71,0,0,0-.47-4.29c-.73-11.32-.35-11.6,10.73-12.28C729.66,2019.45,759.71,2018.64,789.78,2017Z"/><path class="cls-63" d="M824.72,1841.07c0,10.34-.19,20.68.08,31,.13,4.61-.74,6.49-6.06,7-11.51,1.17-23.07.59-34.52,2-4.74.57-6.28-1.12-6.21-5.93.32-20.68.39-41.35.33-62,0-4.4,1-6.43,5.93-6.69,12-.64,24-1.74,35.88-3,3.86-.4,5,.54,4.89,4.47-.25,11-.09,22.11-.09,33.17Z"/><path class="cls-61" d="M761,1936.91c0,9.86-.13,19.72.07,29.57.08,3.92-1.12,5.61-5.24,5.75-13,.43-25.93,1-38.88,1.88-4.15.28-4.85-1.51-4.81-5q.35-29.93.48-59.85c0-3.19.9-4.73,4.45-4.91,12.72-.65,25.44-1.51,38.13-2.5,4.3-.34,6.07.85,5.93,5.48-.3,9.84-.09,19.71-.09,29.56Z"/><path class="cls-64" d="M761,1753.87q0,14.82,0,29.63c0,2.62.42,5.3-3.69,5.56q-19.82,1.23-39.61,3c-4.2.36-5.34-1.12-5.28-5.18q.4-28.9.3-57.82c0-4.15,1.05-6.08,5.52-6.41q18.36-1.36,36.66-3.48c4.95-.58,6.3,1.15,6.17,5.84C760.77,1734.59,761,1744.23,761,1753.87Z"/><path class="cls-65" d="M824.68,1933.69c0,9.62-.17,19.25.08,28.87.1,4.09-.8,6-5.39,6.22-11.77.45-23.53,1.31-35.28,2.15-3.86.28-5.64-.72-5.58-5.08.24-20,.18-39.93.25-59.9,0-3,0-5.62,4.4-5.74,12.26-.32,24.51-.91,36.74-1.66,3.9-.24,5,1.07,4.89,4.83-.21,10.1-.07,20.2-.07,30.31Z"/><path class="cls-66" d="M824.78,1748.49c0,9.38-.23,18.76.1,28.13.15,4.6-.75,7-6,7.29-12,.6-24,1.61-35.95,2.63-3.32.29-4.1-1-4.07-4,.17-20.2.18-40.4.26-60.6,0-2.42-.2-4.8,3.41-5.08,12.45-1,24.9-2,37.33-3.27,3.83-.38,5.05.83,5,4.65C824.65,1728.29,824.79,1738.39,824.78,1748.49Z"/><path class="cls-67" d="M712.88,1704.89c-1.15-.16-3,.59-3.46-1.33-.35-1.55,1.19-2.47,2.15-3.49,12.3-13,27.63-20.65,44.91-24.18,19-3.9,38.06-4.42,56.64,2.89,5,2,9.59,4.44,13.21,8.45,1.36,1.51,4.11,2.63,3.22,5.11-.81,2.25-3.49,2.37-5.59,2.39-6,.06-11.94,1-17.9,1.57-17.65,1.66-35.33,3-53,4.63C739.73,1702.14,726.4,1703.55,712.88,1704.89Z"/><path class="cls-68" d="M726.17,1999.94c-3.61,0-7.23,0-10.84,0-1.83,0-3.34-.5-3.51-2.72s1-3,2.9-3.42a35.54,35.54,0,0,1,4.95-.91c14.17-.61,28.35-1.06,42.51-1.72,18-.85,36-1.85,54-2.76,1.68-.09,3.37-.05,5.06,0,2.07.06,2.95,1.26,3,3.25.07,2.17-.46,3.77-3,4-3.34.34-6.66,1-10,1.18-17.3.63-34.61,1.47-51.91,1.55C748.21,1998.48,737.22,1999.7,726.17,1999.94Z"/><path class="cls-69" d="M617.56,1768.67c0,10.1,0,20.21,0,30.32,0,3.12-.15,5.56-4.36,5.84-11.25.75-22.49,1.78-33.71,2.86-4.55.43-6.92-.44-7.29-5.88-1.35-20.2-.24-40.39-.63-60.58-.05-2.91,1.58-4.21,4.48-4.49,12.42-1.21,24.83-2.47,37.23-3.89,4.08-.47,4.23,1.87,4.22,4.78,0,10.34,0,20.69,0,31Z"/><path class="cls-70" d="M617.47,1947.57c0,9.38-.16,18.76.06,28.13.09,3.87-1.19,5.83-5.13,6.06q-18,1-35.9,2.19c-2.76.18-3.74-1.21-4.31-3.67-1-4.3-.56-8.62-.58-12.93-.07-15.15.13-30.3-.13-45.44-.1-5.27,1.72-7.22,7-7.31,10.79-.19,21.58-.8,32.35-1.53,4.93-.33,6.9,1.18,6.71,6.38C617.22,1928.81,617.47,1938.19,617.47,1947.57Z"/><path class="cls-71" d="M504.26,2053.4H502.1c-16.76.06-14,3.14-14.47-14.15-.16-5.41,1.95-7.1,7.1-7.24q30.27-.81,60.53-2.15,35.29-1.54,70.56-3.58c5-.29,6.72.92,6.78,6.16.2,15.78.42,15.81-15.21,16.43q-56.57,2.25-113.13,4.44Z"/><path class="cls-70" d="M509.19,1778.46v-30.33c0-2.76,0-5.22,3.91-5.52,11.24-.85,22.48-1.87,33.7-3,4.44-.44,5.88,1.25,5.84,5.66-.14,19.5,0,39,0,58.49,0,3.22,0,6.62-4.55,6.6-10.62,0-21,2.13-31.56,2.89-7.37.54-7.42.32-7.46-7.37,0-9.14,0-18.29,0-27.43Z"/><path class="cls-72" d="M552.49,1950.52c0,9.37-.12,18.74,0,28.11.07,3.78-1,5.8-5.11,6-11.73.63-23.45,1.46-35.17,2.26-3.6.25-4.46-1.65-4.45-4.83q.13-28.83.06-57.67c0-4.16,2-5.22,5.8-5.39,11.26-.51,22.53-1.08,33.74-2.16,4.32-.42,5,1.47,5,4.81v28.84Z"/><path class="cls-73" d="M617.48,1858.39c0,9.39-.05,18.77,0,28.15,0,3.07-.69,4.89-4.32,5.13q-17.22,1.14-34.42,2.81c-4.77.46-6.26-1.26-6.29-6-.11-17.53-.4-35.07-1-52.6-.19-5.32,1.85-7.37,6.8-7.78,10.76-.9,21.52-1.83,32.24-3,5.33-.6,7.34,1,7.07,6.63-.41,8.88-.11,17.79-.11,26.69Z"/><path class="cls-74" d="M509.07,1866.36c0-9.13,0-18.27,0-27.41,0-2.93.43-5,4.16-5.3,11-.77,22-1.74,33-2.8,4.45-.42,6.53.7,6.46,5.76-.24,17.79-.17,35.59,0,53.38,0,4.15-1,5.92-5.59,6.14-10.77.51-21.52,1.57-32.26,2.58-4.42.42-6-1.22-5.83-5.66.26-8.89.08-17.79.08-26.69Z"/><path class="cls-75" d="M510.39,1725.07c-1.14-.09-2.63.45-3.23-.86-.81-1.78.92-2.41,2-3.31,13.38-11.66,28.62-19.54,46.43-21.26,19.88-1.92,39.44-.78,57.59,8.91,1.85,1,5.15,1.39,4.91,3.55-.32,2.94-4,2.19-6,2.48-9.49,1.36-19,2.51-28.59,3.22-23.94,1.75-47.81,4.06-71.61,7.12Z"/><path class="cls-76" d="M513.23,2012.75c-3.65.23-5.58-.44-5.71-3.75s1.12-4.68,4.55-4.84c16.28-.77,32.54-2,48.81-2.57,16.54-.62,33-1.34,49.53-2.88,3-.27,5.85-.44,5.9,4,.06,4.29-2.58,4.36-5.69,4.44-21.57.55-43.08,2.37-64.64,3.35C534.8,2011.05,523.4,2010.2,513.23,2012.75Z"/><path class="cls-74" d="M419.36,1787c0,9.37-.11,18.74.05,28.11.06,3.72-.85,5.72-5.07,6-11,.65-22,1.66-33,2.58-3.57.3-5.24-.92-5.23-4.8q.12-28.47-.12-57c0-3.78,1.59-4.83,5.11-5.15,11.44-1,22.86-2.37,34.27-3.66,4.19-.47,4,2.34,4,5.06q0,14.42,0,28.84Z"/><path class="cls-77" d="M363.89,2057.42c-19.49,0-39,0-58.49,0-7.86,0-8.75-1-8.34-8.78.62-11.52.63-11.26,12.1-11.58,38.25-1.07,76.49-2.46,114.74-3.5,11-.3,10.51-1.79,10.54,10.37,0,13.33.23,10.56-10.62,11.32C403.86,2056.61,383.87,2055.94,363.89,2057.42Z"/><path class="cls-54" d="M358.67,1792.71c0,8.65-.28,17.32.1,26,.22,4.86-1.52,7.21-6.24,7.49-10.54.63-21.09,1.16-31.62,1.88-4.13.28-5.31-1.48-5.41-5.46-.47-18.51,1.16-37,1.2-55.46,0-2.5.73-4,3.59-4.29,11.45-1,22.9-2.09,34.33-3.31,4.36-.47,3.94,2.46,3.95,5.06.06,9.38,0,18.75,0,28.13Z"/><path class="cls-78" d="M315.61,1879.22c0-8.67.1-17.34-.05-26-.06-3.68,1.32-5,5-5.17,10.3-.6,20.59-1.53,30.86-2.59,5.35-.55,7.3,1.37,7.22,6.81-.24,16.86-.18,33.72,0,50.57,0,4-.86,6.22-5.27,6.76-11,1.33-22.12.22-33.1,1.89-3.88.59-4.79-2.2-4.77-5.53.06-8.91,0-17.82,0-26.73Z"/><path class="cls-74" d="M419.3,1868.28c.91,10.85-1.46,21.59-.94,32.41.18,3.56-1,5.16-4.83,5.4-10.32.64-20.6,1.52-31,1.56-4.38,0-6.53-.81-6.45-5.9.26-17.31.17-34.64,0-52-.05-4.21,1.15-5.85,5.67-6,10.29-.46,20.57-1.48,30.83-2.54,3.95-.41,5.34.68,5.95,4.82C419.65,1853.46,418.53,1860.89,419.3,1868.28Z"/><path class="cls-70" d="M315.5,1962.43c0-8.91.05-17.83,0-26.74,0-3.09.64-5,4.32-5.07q16.21-.55,32.42-1.64c4.47-.3,6.28,1.75,6.29,5.78.07,17.59,0,35.18.09,52.76,0,3.84-2,4.88-5.48,5-10.82.32-21.68-.34-32.44,1.37-4.19.66-5.44-1.5-5.36-5.43.17-8.67.05-17.35.05-26Z"/><path class="cls-74" d="M376.22,1959.45c0-8.91,0-17.81,0-26.72,0-3.11.71-4.93,4.36-5,10.57-.34,21.13-.81,31.68-1.53,4.87-.33,6.17,1.66,6.12,6.24q-.3,25.65,0,51.29c.06,4.75-1.57,6.19-6.24,6.23-10.09.1-20.18.64-30.25,1.31-4.52.29-5.89-1.39-5.76-5.77.27-8.66.08-17.33.08-26Z"/><path class="cls-79" d="M318.22,1743.84c-1.28-.06-2.68.26-3.41-.87-1.09-1.68.49-2.61,1.46-3.53,10.43-9.76,23-15.79,36.66-19,17.76-4.17,35.64-4.41,53.14,2a57,57,0,0,1,12,6.52c1.19.79,2.71,1.75,2.33,3.31s-2.27,1.38-3.67,1.52l-43.6,4.37-52.86,5.37C319.54,1743.65,318.83,1743.76,318.22,1743.84Z"/><path class="cls-80" d="M337.87,2017.37c-6,0-12,0-18,0-1.9,0-4.13.19-4.35-2.55-.25-3.18,2.11-3.26,4.35-3.37,8.62-.42,17.21-1.26,25.87-1.48,20.38-.53,40.76-1.69,61.14-2.58,2.16-.09,4.33,0,6.49-.1,2.73-.1,4.75.42,4.61,3.86-.13,3.15-2.24,3.18-4.5,3.27-12.72.48-25.4,1.78-38.15,1.5C362.8,2015.64,350.39,2018.13,337.87,2017.37Z"/><path class="cls-81" d="M1044,1388.44c0,10.58-.14,21.17.07,31.76.09,4.59-1,6.79-6.21,7.46-13.55,1.75-27,4.15-40.47,6.58-4.48.8-6.71.34-6.66-5q.3-32.85,0-65.69c0-4.06,1.52-5.21,5.31-5.79,14.22-2.17,28.42-4.53,42.53-7.3,4.78-.93,5.45,1,5.44,4.79C1044,1366.3,1044,1377.37,1044,1388.44Z"/><path class="cls-82" d="M1044,1292c0,10.58-.09,21.16,0,31.73,0,3.39-.81,5.16-4.58,5.78-14.89,2.45-29.73,5.23-44.58,7.93-4.25.77-4.06-2.09-4.06-4.82q0-18.75,0-37.5c0-8.41.14-16.83-.08-25.23-.11-4.46.83-6.92,6-7.77,13.7-2.26,27.3-5.22,40.92-8,4.55-.92,6.61.3,6.48,5.41C1043.84,1270.38,1044.05,1281.21,1044,1292Z"/><path class="cls-83" d="M1044.05,1195.39c0,10.35-.11,20.69,0,31,.08,4.45-.87,6.83-6.08,7.66-13.73,2.17-27.36,5.06-41,7.89-4.95,1-6.3-.68-6.26-5.49q.27-31.4,0-62.79c0-4.12,1.22-5.9,5.47-6.67,13.46-2.4,26.83-5.32,40.24-8,6.88-1.37,7.54-.85,7.57,6C1044.1,1175.18,1044.06,1185.29,1044.05,1195.39Z"/><path class="cls-62" d="M1062.91,1487.92c0,12,0,11.84-12.29,13.52-44.3,6-88.59,12.21-132.88,18.29-2.62.36-5.29.29-7.93.56-10.44,1-10.44,1.07-10.44-9.85,0-12.08,0-12.07,12.16-13.92,44.91-6.86,90-12.68,135-18.62,2.39-.32,4.73-.9,7.11-1.23,9.22-1.27,9.22-1.25,9.29,8.36Z"/><path class="cls-83" d="M921.24,1217.4c0-10.36.16-20.72-.09-31.06-.09-4,.86-6.27,5.08-7,13.22-2.43,26.41-5,39.6-7.65,4.41-.87,6,.69,6,5.28-.16,21.43-.08,42.87,0,64.3,0,3.33-.63,5.12-4.52,5.79-13.71,2.39-27.36,5.18-41,8-4,.84-5.17-.61-5.13-4.39.12-11.07,0-22.15,0-33.23Z"/><path class="cls-81" d="M972.1,1400.12c0,10.83-.12,21.66.06,32.49.07,4.19-1.45,5.86-5.69,6.47-13.3,1.9-26.56,4.06-39.76,6.56-4.52.86-5.45-.62-5.43-4.66q.15-32.13,0-64.25c0-3.8,1.1-5.6,5-6.28,13.71-2.37,27.38-5,41-7.65,4.31-.84,4.82,1.44,4.79,4.83-.09,10.83,0,21.66,0,32.49Z"/><path class="cls-82" d="M972,1304.17c0,9.63-.26,19.27.1,28.88.22,6-1.07,8.86-8,9.58-11.89,1.23-23.61,4.14-35.42,6.3-6.7,1.23-7.4.66-7.41-6.31,0-19.74.14-39.48,0-59.22,0-4.85,1-7.2,6.43-8.08,13-2.11,25.85-5.26,38.91-7.31,5.19-.82,5.51,1.17,5.46,5.11-.11,10.35,0,20.7,0,31.05Z"/><path class="cls-84" d="M918.41,1161.25c-4.07.28-4.69-1-2.78-3.65,15.62-21.81,35.32-36.76,63-39.83a120.63,120.63,0,0,1,44.17,3.32c8.92,2.31,17,6.66,24.82,11.36,1.18.7,3,1.33,2.82,2.91-.21,1.94-2.2,1.32-3.51,1.57q-33.9,6.45-67.81,12.88-29,5.48-57.95,10.9Z"/><path class="cls-85" d="M1042.84,1452.74c1.16,4.62-2.45,5.64-6.18,6.2q-25.58,3.81-51.19,7.4c-19.21,2.69-38.43,5.23-57.65,7.87-2.63.36-5.94,2.63-6.49-2.38-.41-3.78-.31-7.28,4.72-8.07,8.74-1.38,17.45-3,26.2-4.4q41.52-6.55,83-13C1042,1445.35,1042.86,1446.16,1042.84,1452.74Z"/><path class="cls-86" d="M776.9,1340.24c0-10.12.1-20.24,0-30.35-.07-4.19.88-6.47,5.71-7.24,11.61-1.86,23.13-4.33,34.63-6.83,4.27-.92,5.56.39,5.53,4.6-.12,21-.06,41.92,0,62.88,0,3.14-.39,5.62-4.3,6.24-11.85,1.88-23.74,3.65-35.48,6.11-5.81,1.22-6.27-1.05-6.13-5.78.29-9.87.09-19.75.09-29.63Z"/><path class="cls-62" d="M840.3,1518.51c.1,11.14.12,11.29-11,12.84-39,5.47-78,10.8-117.05,16.22-5.71.79-11.4,1.75-17.09,2.67-3.21.53-5.21-.34-4.94-4a5.77,5.77,0,0,0,0-.72c-.89-16.47-.93-16.81,15.45-19.2,32.33-4.71,64.71-9,97.07-13.5Q816,1511,829.18,1509C840.21,1507.46,840.21,1507.45,840.3,1518.51Z"/><path class="cls-81" d="M776.86,1248.05c0-10.12.14-20.25-.07-30.36-.07-3.79.91-5.39,5-6,11.61-1.88,23.12-4.38,34.66-6.66,3.59-.71,5.34.34,5.38,4.37q.27,30.68.88,61.37c.08,4.1-1.36,5.91-5.64,6.59-11.62,1.85-23.19,4.06-34.69,6.51-4.52,1-5.54-.68-5.5-4.7.12-10.35,0-20.71,0-31.07Z"/><path class="cls-82" d="M757.94,1344.07c0,9.87-.18,19.75.08,29.61.12,4.74-.74,7.24-6.3,8.07-11.61,1.74-23.12,4.18-34.76,5.9-3.6.54-4.16-.67-4.16-3.61,0-21.18.08-42.37,0-63.56,0-3.3,1.46-4.87,4.41-5.5,12.22-2.59,24.48-4.88,36.83-6.74,4.09-.62,3.76,1.59,3.77,4q0,15.89,0,31.78Z"/><path class="cls-83" d="M757.87,1252.51c0,9.87-.16,19.74.07,29.6.11,4.25-.9,6.49-5.59,7.26-11.35,1.87-22.63,4.23-33.9,6.57-4.25.88-6,.07-5.76-4.81.86-18-.83-36,0-54,.59-12.59.35-12.61,12.78-15,9-1.72,18-3.19,26.83-5.23,4.44-1,5.59.43,5.54,4.54-.13,10.35-.05,20.69-.05,31Z"/><path class="cls-87" d="M822.85,1423.85c0,9.62-.17,19.24.07,28.86.11,4.22-.75,6.67-5.53,7.28-11.41,1.45-22.77,3.34-34.15,5.06-4.4.66-6.55-.57-6.49-5.67.24-19.24.16-38.48,0-57.71,0-3.8,1.24-5.55,5.2-6.16,11.37-1.74,22.8-3.39,34-6.08,6.72-1.63,7.12,1,7,6.29C822.67,1405.09,822.85,1414.47,822.85,1423.85Z"/><path class="cls-88" d="M758,1434.45c0,9.87-.09,19.75,0,29.61,0,3.5-1,5.07-4.76,5.57-11.66,1.54-23.27,3.48-34.88,5.38-4.1.67-5.61-.74-5.58-5,.14-19.26.08-38.52,0-57.78,0-3.06.71-4.71,4.22-5.31,12.07-2,24.09-4.35,36.23-6,3.8-.53,4.64.5,4.6,3.91-.11,9.87,0,19.74,0,29.61Z"/><path class="cls-67" d="M789.44,1162.81a57.46,57.46,0,0,1,22.93,3c7.18,2.47,12.35,7.34,16.47,13.43,1.79,2.66,1.94,4.74-2.35,5.31-31.42,4.22-62.3,11.46-93.54,16.67-8.05,1.34-16.11,2.57-24.17,3.86-1.14.18-2.55,1.29-3.37.21-1.14-1.49.46-2.58,1.35-3.59,16.92-19.17,37.72-31.82,62.78-37.35A80.54,80.54,0,0,1,789.44,1162.81Z"/><path class="cls-89" d="M718,1506.08c-2.36.85-5.53.6-6.06-5-.51-5.28,2-7.21,6.88-7.89,18.29-2.52,36.55-5.27,54.82-7.91q18.87-2.73,37.75-5.41a14.93,14.93,0,0,1,4.3-.27c2.44.4,6.62-2,6.64,2.79,0,3.64-.35,7.7-5.72,8.5-15.17,2.25-30.29,4.89-45.45,7.24C754.09,1500.78,737,1503.25,718,1506.08Z"/><path class="cls-81" d="M571.4,1287.58c0-9.38.36-18.77-.15-28.12-.28-5.33,1.91-7.19,6.63-8,10.86-1.92,21.76-3.74,32.45-6.36,6.29-1.54,7.06,1.36,7,6.19,0,14.18,0,28.37,0,42.55,0,5-.27,10.12.06,15.14.28,4.2-1.34,6.17-5.38,6.89-12,2.14-24.07,4.3-36,6.78-4,.83-4.6-.79-4.58-4,.06-10.33,0-20.67,0-31Z"/><path class="cls-87" d="M571.39,1377.59c0-9.85.09-19.71,0-29.56-.05-3.64.73-5.47,4.94-6.15,11.58-1.87,23.05-4.42,34.57-6.72,4.34-.87,6.71.06,6.66,5.31-.19,19.47-.09,38.94,0,58.4,0,3.33-.71,5.49-4.36,6.14-12.73,2.28-25.46,4.59-38.14,7.11-4.39.88-3.49-2.09-3.5-4.25-.09-10.09,0-20.18,0-30.28Z"/><path class="cls-90" d="M617.46,1459.59c0,9.38,0,18.76,0,28.14,0,3.1-.29,5.54-4.3,6.14-11.38,1.7-22.7,3.82-34.07,5.62-6.88,1.09-7.55.48-7.57-6.33-.06-18,0-36.08-.12-54.11,0-3.6.71-6,4.66-6.7,11.56-2.08,23.14-4.1,34.63-6.51,5.81-1.22,7,1.11,6.82,6.34-.32,9.12-.08,18.27-.08,27.41Z"/><path class="cls-91" d="M552.64,1291.66c0,9.87-.12,19.73.07,29.59.07,3.87-1.5,5.57-5.21,6.31-10.81,2.18-21.58,4.58-32.35,7-4,.88-6.12.26-6.34-4.73-.84-19.2-.55-38.41-1-57.61-.1-4.9,1.68-6.78,6.15-7.63,11.3-2.16,22.6-4.42,33.81-7,3.89-.9,4.69.49,4.67,3.83-.05,10.1,0,20.2,0,30.3Z"/><path class="cls-71" d="M633.34,1547.92c.27,11.14.31,11.42-9.35,12.84-29.93,4.38-59.9,8.54-89.85,12.75-12.84,1.81-25.7,3.41-38.51,5.38-4.22.65-6.16-.12-6.49-4.83-1-14.53-1-15.09,13.25-17.2,32.3-4.78,64.66-9.2,97-13.71,8.55-1.2,17.13-2.27,25.71-3.26,8-.93,8.06-.85,8.24,7.58C633.35,1548.19,633.34,1548.91,633.34,1547.92Z"/><path class="cls-92" d="M552.58,1381.43c0,9.63-.23,19.27.11,28.89.15,4.39-1.77,6-5.6,6.72q-16.3,2.87-32.6,5.84c-3.49.63-5.45-.17-5.43-4.31.09-19.74,0-39.48,0-59.22,0-3,.89-4.89,4.25-5.5,11.57-2.07,23.14-4.22,34.63-6.68,3.88-.83,4.66.59,4.64,3.93-.07,10.11,0,20.22,0,30.33Z"/><path class="cls-93" d="M552.65,1471.15c0,8.67-.19,17.35.08,26,.13,4.54-.72,6.86-6,7.46-10,1.13-19.89,3.35-29.84,5-6.85,1.13-7.62.47-7.63-6.3,0-17.58.13-35.16,0-52.75,0-4.61,1.1-6.82,6.25-7.48,9.75-1.26,19.36-3.56,29-5.29,7.15-1.28,8-.57,8,6.62.05,8.91,0,17.82,0,26.73Z"/><path class="cls-67" d="M580.37,1209.13a78.07,78.07,0,0,1,34.75,8.29c2.37,1.16,5.43,2.45,5,5.45-.44,3.23-4.06,3-6.45,3.31-35.62,5.37-70.79,13.19-106.16,19.86-1.87.35-4.36,1.63-5.49.19-1.54-2,1.25-3.26,2.36-4.53,13.85-15.73,31.64-24.77,51.68-29.62A98.62,98.62,0,0,1,580.37,1209.13Z"/><path class="cls-94" d="M611,1513.28c4.41-.86,5.61.78,6.09,3.15.58,2.83-.42,4.61-3.49,5.11-8.05,1.3-16.06,2.87-24.13,4q-37.37,5.48-74.78,10.7c-2.28.32-5.69,2.85-6.32-1.43-.5-3.32,1.61-5.66,5.49-6.24,11.62-1.74,23.19-3.83,34.8-5.66,20.6-3.24,41.22-6.38,61.84-9.57C611.18,1513.28,611.87,1513.07,611,1513.28Z"/><path class="cls-81" d="M313.78,1339.36c0-9.15.22-18.31-.09-27.44-.15-4.29,1.69-6.13,5.5-6.94,11-2.36,22.08-4.69,33.07-7.25,3.76-.88,5.07.22,5.66,4,.83,5.3.55,10.56.59,15.84.09,13-.23,26,.17,39,.16,5.2-1.84,7.43-6.58,8.31-11.1,2-22.24,3.94-33.21,6.52-4.93,1.16-5.26-.84-5.21-4.6.11-9.15,0-18.3,0-27.45Z"/><path class="cls-92" d="M313.74,1424.64c0-9.14.11-18.29-.06-27.43-.07-3.74,1-5.42,5.07-6.12,11.11-1.9,22.12-4.43,33.15-6.76,3.91-.83,5.53.25,5.81,4.63,1.2,18.73-.47,37.45,0,56.17.08,3.46-1,5.08-4.73,5.64-11.39,1.68-22.78,3.52-34,6-4.91,1.06-5.21-.89-5.16-4.65.12-9.14,0-18.29,0-27.43Z"/><path class="cls-87" d="M358.58,1502.59c0,8.66-.07,17.33,0,26,.05,3.72-1.12,5.63-5.17,6.19-11.17,1.53-22.29,3.45-33.4,5.32-4.7.8-6.4-.84-6.33-5.72.23-17.31.14-34.64.09-51.95,0-3.2.39-5.35,4.41-5.93,11.38-1.64,22.73-3.59,34-5.77,4.7-.91,6.59.09,6.42,5.18C358.36,1484.79,358.57,1493.69,358.58,1502.59Z"/><path class="cls-95" d="M433.85,1578.37c.14,11,1.12,9.09-8.91,10.56-36.35,5.3-72.79,10-109.19,15-5.23.71-10.5,1.31-15.65,2.43s-6.7-.69-6.68-5.85c.06-12.62-.17-12.67,12.22-14.45q59.88-8.55,119.77-17c8.31-1.18,8.33-1.1,8.43,7.2C433.85,1576.93,433.85,1577.65,433.85,1578.37Z"/><path class="cls-81" d="M416.9,1318.93c0,9.61-.1,19.22.05,28.83.05,3.71-.94,5.54-5.06,6.15-9.71,1.45-19.33,3.52-29,5.4-4.59.9-7.12.14-7-5.57.27-18.5.07-37,.05-55.51,0-2.65-.32-5.6,3.23-6.3,11-2.19,22.13-4.11,33.14-6.44,4.48-1,4.62,1.31,4.59,4.6-.1,9.61,0,19.22,0,28.84Z"/><path class="cls-81" d="M416.89,1406.58c0,9.38-.11,18.76.06,28.13.07,3.75-.92,5.45-5.06,6-9.72,1.36-19.35,3.4-29,5.24-4.73.9-7-.22-6.89-5.74q.4-27.4,0-54.82c-.06-4.43,1.74-5.81,5.64-6.44,10.17-1.64,20.37-3.26,30.42-5.48,4.44-1,4.89.74,4.86,4.22-.08,9.62,0,19.23,0,28.85Z"/><path class="cls-96" d="M416.88,1492.49c0,9.15,0,18.3,0,27.45,0,2.77,0,5.23-3.76,5.73-10.94,1.45-21.89,3-32.76,4.83-3.55.61-4.17-.59-4.17-3.61q0-27.81-.12-55.62c0-2.58.26-4.42,3.55-5.12q16.56-3.56,33.33-5.75c3.78-.5,3.92,1.22,3.91,3.92,0,9.39,0,18.78,0,28.17Z"/><path class="cls-97" d="M311.26,1287.56c-3.64,1-2.95-.81-1.67-3.28,3.78-7.3,9.82-12.34,16.49-16.76,19.08-12.66,40.27-19,62.95-20.59,9.1-.63,17.6,1.86,25.38,6.6a16.69,16.69,0,0,1,4.38,3.67c4.42,5.54,3.81,7.27-2.9,8.89-32.42,7.78-65.06,14.5-97.79,20.79C316,1287.28,313.8,1287.31,311.26,1287.56Z"/><path class="cls-98" d="M319.1,1566.18c-2.39,0-5,.5-5.21-3.2-.25-4.06,2.6-4.77,5.52-5.21,10.44-1.57,20.89-3,31.33-4.54q28.13-4.05,56.26-8.09c1.9-.27,3.82-.46,5.73-.57,2.4-.14,5-.58,5.28,3.09.29,3.27-1.48,3.94-4.26,4.36-10.91,1.64-21.75,3.82-32.68,5.22-19.76,2.53-39.47,5.27-59.09,8.7C321,1566.1,320.06,1566.11,319.1,1566.18Z"/></svg>