<svg id="Layer_1" data-name="Layer 1" xmlns="http://www.w3.org/2000/svg" viewBox="0 0 2000 2985.55"><defs><style>.cls-1{fill:#231f20;}</style></defs><path class="cls-1" d="M194.83,1375.24v235.07H122.67V1375.24Z"/><path class="cls-1" d="M436.78,1610.31H378.06l-64.38-103.87q-12.4-20-25-48.54,5.69,22.72,5.68,38.57v113.84H235.81V1375.24H304l54.77,86.1q16.35,25.67,24.79,45.12a341.47,341.47,0,0,1-5.51-61.65v-69.57h58.72Z"/><path class="cls-1" d="M662.55,1431.55v178.76H594.18V1431.55H545.45v-56.31H711.29v56.31Z"/><path class="cls-1" d="M931.2,1375.24v235.07H859.05v-91.45H803.94v91.45H731.78V1375.24h72.16v86.45h55.11v-86.45Z"/><path class="cls-1" d="M1148.88,1554.17v56.14H972V1375.24h176.86v54.24H1042.79v34.1h85.77v52.18h-85.77v38.41Z"/><path class="cls-1" d="M1430.44,1552.62v57.69h-164.8V1375.24h72.15v177.38Z"/><path class="cls-1" d="M1585.2,1610.31,1571.92,1564h-63l-14.12,46.33h-58.58l72.57-235.07h76.29l73.73,235.07Zm-64-97.65h38l-19-68.19Z"/><path class="cls-1" d="M1680.49,1610.31V1375.24h119.35q37.19,0,54.24,18.77t17.05,42.88a54.28,54.28,0,0,1-9.9,31.77q-9.9,14.22-29.53,19.55,45.63,11,45.63,54.76a73.88,73.88,0,0,1-16.1,46.76q-16.11,20.58-68.8,20.58Zm66.48-145h33.41q12.57,0,17.73-6.37a21.19,21.19,0,0,0,5.17-13.6q0-19.63-24.11-19.63H1747Zm0,92.65h35.13q13.08,0,19.2-6.45a20.68,20.68,0,0,0,6.11-14.56,22.18,22.18,0,0,0-5.94-14.89q-5.94-6.81-21.78-6.8H1747Z"/></svg>